<svg version="1.1" id="Layer_1" xmlns="http://www.w3.org/2000/svg" xmlns:xlink="http://www.w3.org/1999/xlink" x="0px" y="0px"
	 width="100%" viewBox="0 0 1024 1024" enable-background="new 0 0 1024 1024" xml:space="preserve">
<path fill="#000000" opacity="1.000000" stroke="none" 
	d="
M474.015137,129.266159 
	C466.172058,129.095779 458.915497,129.902084 451.674500,131.113846 
	C449.910217,131.409119 447.025177,132.295746 446.780396,129.447250 
	C446.561310,126.897850 449.333008,127.004135 451.263794,126.651253 
	C464.419800,124.246834 477.754974,124.355995 491.041107,123.785423 
	C494.489532,123.637329 497.914276,124.080315 500.916412,121.371918 
	C502.526001,119.919846 505.036255,120.702377 507.191162,121.136314 
	C514.901855,122.689041 522.276794,125.284248 529.387451,128.555603 
	C549.351440,137.740341 569.763855,145.986511 588.959656,156.788406 
	C592.573669,158.822083 596.093567,161.022995 599.673645,163.156723 
	C601.235474,162.513428 600.011475,159.535965 602.578186,159.805557 
	C604.587036,160.016586 605.313232,161.633713 606.070068,163.046478 
	C611.895813,173.921051 616.948975,185.168320 621.642700,196.562637 
	C629.369141,215.319107 638.137390,233.658218 643.602722,253.317596 
	C648.609741,271.328339 647.651428,289.581085 646.688171,307.864655 
	C646.136841,318.330139 644.752747,328.717957 643.508911,339.123627 
	C642.865173,344.509918 646.301331,349.250549 648.388428,353.991425 
	C662.477539,385.995514 676.698242,417.944641 691.230042,449.749939 
	C702.931030,475.359253 712.400085,501.869843 723.361816,527.760986 
	C741.989868,571.759583 759.202393,616.329895 777.696045,660.379089 
	C782.744568,672.403870 786.333618,685.099121 786.246765,698.089355 
	C786.193848,705.992065 785.878113,713.904663 786.345093,721.817322 
	C788.028748,750.348633 785.326904,778.581055 781.545471,806.846863 
	C777.466248,837.338562 772.517273,867.600647 764.322937,897.279419 
	C758.227417,919.356628 750.264648,940.663635 738.275024,960.300110 
	C736.890442,962.567871 735.375549,964.773743 733.730835,966.858215 
	C732.754089,968.096069 731.225220,968.712036 729.709290,967.817627 
	C728.346252,967.013306 728.518066,965.464233 728.771301,964.192688 
	C729.466125,960.702820 731.314148,957.658081 733.156372,954.721130 
	C747.031738,932.599304 755.349731,908.240479 762.207397,883.274719 
	C769.128540,858.078003 773.497253,832.422058 776.845337,806.522827 
	C779.595276,785.250000 782.795471,763.994568 782.484192,742.536316 
	C782.214844,723.965942 781.021729,705.456238 778.325867,686.924438 
	C775.946655,670.568970 769.961487,655.852112 763.777527,641.041504 
	C753.576660,616.610474 745.546021,591.331604 734.876831,567.110657 
	C719.438965,532.063538 707.563721,495.590942 691.784912,460.685486 
	C677.249451,428.530396 662.968201,396.260345 648.559937,364.047668 
	C648.229309,363.308563 647.718994,362.649841 647.328064,362.011810 
	C645.353149,361.888428 645.113647,363.497589 644.484253,364.538239 
	C639.572998,372.658813 634.807007,380.879974 628.421082,387.979889 
	C627.205750,389.331085 627.267944,390.586121 627.868103,392.092010 
	C628.399414,393.425079 628.330200,394.752625 627.129211,395.731323 
	C625.706970,396.890350 624.267700,396.418030 623.022827,395.434204 
	C619.497375,392.648071 615.773071,390.050995 612.577881,386.919464 
	C590.058044,364.848755 564.021606,347.474396 537.791626,330.307709 
	C531.346619,326.089722 524.036926,326.734100 517.133911,325.625061 
	C501.858215,323.170776 486.419708,321.833679 470.884094,322.320404 
	C453.062653,322.878784 435.424805,325.108856 417.807983,327.698364 
	C410.118286,328.828705 402.347626,329.408264 394.766602,330.221558 
	C393.590973,333.008606 397.174805,334.886536 395.257080,338.364288 
	C391.845917,333.813782 387.087799,330.995117 386.327118,325.031311 
	C386.082092,323.109924 385.211609,321.181854 384.271362,319.450043 
	C379.297180,310.288544 376.493408,299.950104 369.342438,291.956940 
	C368.402771,290.906555 368.392487,289.349426 369.474945,288.309601 
	C370.538574,287.287842 371.925812,287.367493 373.155090,288.219025 
	C375.407349,289.779144 376.894806,292.015350 378.229889,294.322723 
	C382.910828,302.412567 387.163025,310.777405 390.062988,319.627441 
	C391.801300,324.932190 394.905121,325.081390 399.179932,324.388336 
	C411.313782,322.421082 423.469757,320.588959 435.596436,318.579163 
	C466.764404,313.413544 497.920227,313.271484 529.016479,318.973175 
	C532.895691,319.684479 534.867737,318.416046 536.741333,315.404358 
	C539.616028,310.783508 543.562744,307.568756 549.857605,307.749481 
	C546.603333,311.118011 543.352051,314.489380 540.094116,317.854309 
	C536.175720,321.901367 536.269653,322.539612 541.163025,325.495636 
	C565.567871,340.238129 589.638489,355.460175 610.964600,374.576782 
	C615.043579,378.233093 619.002747,382.023071 623.220886,385.940613 
	C628.333984,378.577850 633.999451,371.739624 637.992859,364.034790 
	C639.642822,360.851288 638.529663,355.759735 638.352295,351.639984 
	C637.633362,334.941986 639.046448,318.316315 640.289978,301.765747 
	C642.265991,275.464478 638.700073,250.358017 628.578735,226.070862 
	C623.456177,213.778839 618.375732,201.462143 613.647156,189.015701 
	C610.801819,181.526306 605.899719,175.968445 599.656250,171.268280 
	C593.381897,166.544968 586.783569,162.345978 579.844482,158.698502 
	C562.000061,149.318695 543.862549,140.537476 525.446411,132.334503 
	C518.767029,129.359314 512.305908,126.966583 504.427979,128.064636 
	C494.590881,129.435776 484.493225,128.937851 474.015137,129.266159 
M644.208618,354.013916 
	C643.639221,352.138733 643.069763,350.263550 642.500366,348.388367 
	C643.034973,352.101166 640.604675,355.704102 641.681213,359.700653 
	C644.071838,358.463226 645.131104,357.008057 644.208618,354.013916 
z"/>
<path fill="#000000" opacity="1.000000" stroke="none" 
	d="
M250.440399,818.594727 
	C254.001312,803.787903 258.297394,789.631042 263.023438,775.600342 
	C264.082397,772.456360 265.344452,769.410461 263.889343,765.948242 
	C263.160095,764.213196 264.047821,762.357117 264.743652,760.642822 
	C266.946136,755.216675 269.494202,749.856140 273.085876,745.322754 
	C277.656158,739.554077 278.046387,733.219910 277.578003,726.477844 
	C277.197449,721.000671 276.805603,715.524292 276.342896,708.973206 
	C270.782745,718.486328 265.630524,727.282532 260.497162,736.089722 
	C255.059509,745.418945 249.613510,754.743469 244.225586,764.101379 
	C242.115189,767.766846 239.826263,766.406311 237.926071,764.194641 
	C233.966629,759.586182 231.511185,754.117249 229.633911,748.371948 
	C222.514893,726.584900 222.848114,704.400696 226.853333,682.231506 
	C231.614929,655.875671 237.608582,629.762756 246.960800,604.597290 
	C258.862885,572.570618 275.870636,543.179504 294.352448,514.585083 
	C300.863342,504.511658 306.916565,494.164032 312.727631,483.667114 
	C314.356506,480.724701 315.877808,477.017059 320.880035,477.524353 
	C311.645477,493.078949 303.778290,508.789215 294.215393,523.529846 
	C262.498840,572.419128 242.254303,625.688416 233.572006,683.314453 
	C230.162811,705.941833 230.610870,728.404541 237.374420,750.480164 
	C237.860855,752.067871 238.433044,753.630615 239.005585,755.190186 
	C239.282303,755.943970 239.652466,756.663330 240.259583,758.024414 
	C245.858765,748.185730 250.826736,738.638428 256.919159,729.783142 
	C261.544067,723.060791 266.115540,716.284790 271.096313,709.830200 
	C274.418549,705.524902 276.390198,701.121704 275.701172,695.608215 
	C275.435028,693.478394 275.647858,691.279846 275.740570,689.116821 
	C275.809723,687.504395 276.389282,685.948181 278.266937,686.029480 
	C280.503662,686.126404 279.830475,687.868774 279.918671,689.378418 
	C280.295502,695.826660 280.913757,702.260498 281.412994,708.702026 
	C283.071167,730.096130 284.546844,751.506165 286.415161,772.881836 
	C288.152618,792.760315 291.632294,812.411499 294.638947,832.127869 
	C297.728485,852.387817 303.192566,872.086060 307.731567,892.005371 
	C307.952759,892.976135 308.358215,893.992249 308.247070,894.936523 
	C307.739746,899.244873 310.072357,899.979187 313.664337,899.704407 
	C331.405792,898.347290 347.970520,902.975037 364.074219,909.821411 
	C365.756134,910.536438 367.433075,911.316956 368.981415,912.278015 
	C370.648285,913.312683 372.796143,914.450317 371.885956,916.874268 
	C371.042419,919.120544 368.775146,918.174988 367.040375,918.194458 
	C365.762451,918.208801 364.569031,917.063293 362.771942,918.124451 
	C363.665558,925.152100 367.461212,932.210632 364.707336,939.749146 
	C361.828491,939.916992 361.486176,937.593079 360.736908,935.903259 
	C358.230194,930.249939 356.683441,924.282593 355.449860,918.246704 
	C354.784271,914.989990 353.037445,913.216064 349.879547,911.987976 
	C335.796692,906.511047 321.113922,905.357605 306.229462,905.344788 
	C304.669586,905.343384 303.240845,905.585022 302.175934,906.856018 
	C298.987518,910.661560 295.799957,914.467773 292.325531,918.615784 
	C311.688995,932.611206 333.446198,932.778687 355.998016,933.580261 
	C358.365356,937.708984 357.388733,940.454834 351.451996,941.450500 
	C342.583435,942.937683 333.936188,940.491516 325.289917,939.025146 
	C316.066956,937.460999 307.235596,934.697327 298.975616,930.015930 
	C295.426208,928.004150 290.342499,929.690430 287.669098,925.800110 
	C286.879303,926.056030 286.549133,926.114014 286.266510,926.262512 
	C284.484070,927.199463 284.176453,931.168518 281.584381,929.674316 
	C278.931763,928.145203 280.876648,925.543030 281.997467,923.561096 
	C283.344147,921.179688 281.571167,919.860596 280.371582,918.332458 
	C271.823090,907.443054 264.357697,895.807373 256.665070,884.317017 
	C247.498734,870.625488 244.274078,855.840393 246.876419,839.631775 
	C247.982071,832.745178 248.362427,825.740051 250.440399,818.594727 
M278.653778,750.039124 
	C278.468933,748.585571 279.095612,746.951416 277.944550,745.458374 
	C272.487701,753.401489 270.510651,762.029175 268.430023,770.976562 
	C263.285095,793.101318 255.448166,814.567688 253.567032,837.481323 
	C252.370392,852.057495 253.946503,865.592773 262.905365,877.761658 
	C269.516876,886.742004 275.619843,896.096741 281.953033,905.282104 
	C284.095215,908.389099 286.009125,911.687317 289.391296,914.602661 
	C293.153992,910.233704 296.738220,906.136658 300.245636,901.974854 
	C302.310760,899.524292 301.999847,896.643738 301.123596,893.908813 
	C293.846558,871.195557 289.589111,847.846985 286.119751,824.308105 
	C282.529083,799.945801 279.580170,775.529663 278.653778,750.039124 
z"/>
<path fill="#000000" opacity="1.000000" stroke="none" 
	d="
M319.036682,232.978241 
	C315.179718,235.291687 309.757874,235.575378 308.964935,241.764526 
	C308.717224,243.697983 305.949768,243.315598 304.135193,243.300842 
	C302.727875,243.289398 301.409912,242.971268 300.977112,241.417892 
	C300.501343,239.710297 301.549103,238.572922 302.723511,237.572006 
	C311.558716,230.041809 321.665283,224.622864 332.184326,219.902542 
	C334.764526,218.744675 337.464783,217.843369 340.002808,216.604706 
	C345.870697,213.740875 351.691650,212.155777 355.147919,204.632019 
	C359.989349,194.092957 369.859283,186.739349 378.397308,178.797852 
	C397.137054,161.367371 417.793152,146.516937 439.850983,133.591492 
	C441.334503,132.722168 442.679382,131.252502 444.965363,131.671326 
	C445.343964,134.970428 442.505463,135.841461 440.676666,137.079208 
	C423.971680,148.385223 407.827942,160.418396 392.659332,173.726730 
	C381.263275,183.725220 369.907959,193.774811 360.265228,205.560623 
	C359.757904,206.180679 359.337463,206.871811 358.493896,208.076218 
	C362.515289,208.333466 365.619232,206.864502 368.240295,206.106979 
	C380.485962,214.928131 393.054352,222.399094 405.778900,230.518570 
	C402.051422,217.560486 410.812836,210.200302 416.641449,201.506332 
	C413.539154,195.361618 414.039307,193.778854 420.199951,189.634308 
	C427.301758,184.856583 435.400696,182.953354 443.637787,181.789291 
	C450.923370,180.759659 458.138031,179.320694 464.845551,176.519516 
	C472.646210,173.261826 480.395203,172.112274 488.638702,173.689072 
	C501.867126,176.219391 515.313782,177.003372 528.662476,178.565628 
	C530.933899,178.831451 532.388611,179.240829 532.582886,181.915283 
	C532.709778,183.661652 534.500671,184.547058 535.702576,185.664139 
	C545.829590,195.076584 555.994080,204.448792 566.101501,213.882233 
	C567.444397,215.135544 570.176697,216.400314 568.348328,218.582748 
	C566.672180,220.583435 564.378174,219.127243 562.555420,217.814255 
	C561.097107,216.763809 559.631470,215.723526 557.223816,214.003403 
	C550.908386,239.500961 548.810303,264.886017 545.993469,290.551880 
	C543.063477,289.168213 543.681641,287.477234 543.695618,286.133331 
	C543.951599,261.647797 545.865173,237.359940 552.912476,213.748672 
	C553.546997,211.622864 553.101196,210.332352 551.675903,208.900986 
	C543.683899,200.874878 535.625854,192.909149 527.833069,184.692581 
	C524.417786,181.091568 519.966309,181.907059 516.125549,181.724304 
	C504.283691,181.160858 492.719635,178.851379 481.071625,177.103561 
	C477.630432,176.587219 474.334106,176.631378 471.259399,177.790146 
	C460.480865,181.852295 449.335449,184.370224 438.052948,186.464401 
	C432.608124,187.475037 427.555084,189.660645 422.826050,192.529816 
	C417.326904,195.866196 417.329742,197.783539 423.305481,201.068710 
	C417.134521,205.471191 413.849884,211.755341 410.695343,218.184647 
	C409.295502,221.037659 409.346283,223.266342 411.146667,226.014435 
	C415.576477,232.775970 420.172180,239.632614 425.440002,245.505112 
	C431.009674,251.714096 433.427490,259.831879 439.535797,265.429230 
	C440.133240,265.976715 440.320587,266.889587 439.410370,267.942596 
	C435.622833,267.434479 433.450012,264.366852 430.941620,261.913513 
	C423.594360,254.727310 423.657928,254.758667 414.222168,259.211334 
	C401.577118,265.178436 388.535156,270.318146 376.350952,277.238556 
	C373.728363,278.728119 369.831940,279.304169 371.054565,284.209167 
	C371.532349,286.126068 369.561249,286.036987 367.851044,285.667969 
	C364.298248,284.901398 362.630951,281.889252 360.131500,279.851166 
	C353.549652,274.484131 346.823059,269.294952 340.188080,263.992493 
	C335.245422,260.042480 330.351227,256.031708 325.446106,252.034897 
	C324.415985,251.195541 323.288361,250.374191 323.801727,248.411667 
	C326.357605,246.658569 328.351166,248.673691 330.230743,249.977402 
	C341.448364,257.758240 352.933655,265.217682 362.824280,274.719177 
	C365.756622,277.536163 367.973053,277.795044 371.371979,275.322052 
	C382.896210,266.937317 396.060852,261.577423 408.910614,255.651840 
	C412.475555,254.007904 416.368530,252.911652 419.559418,249.988312 
	C416.273285,244.373932 413.078979,239.363449 406.365570,237.107193 
	C394.910400,233.257309 384.690918,226.750168 375.122009,219.547485 
	C366.791260,213.276779 359.153290,211.728912 349.633301,217.165649 
	C339.849213,222.753204 328.775818,225.954819 319.216461,232.754913 
	C319.008759,232.998199 319.036682,232.978241 319.036682,232.978241 
z"/>
<path fill="#000000" opacity="1.000000" stroke="none" 
	d="
M681.906006,764.902344 
	C684.140808,765.239990 685.945374,765.537415 687.759216,765.758606 
	C694.665710,766.600708 694.627136,766.591248 694.668945,759.406616 
	C694.762207,743.391907 692.585571,727.526978 691.358765,711.608337 
	C689.574463,688.455200 689.724304,665.401672 692.461731,642.351257 
	C693.048950,637.406372 693.377441,632.428833 694.054688,627.497864 
	C694.231567,626.209900 694.132446,626.267761 692.946045,625.780212 
	C690.708008,624.860596 691.582214,622.591492 692.242554,621.028503 
	C696.840149,610.145203 701.558350,599.312561 706.288635,588.485901 
	C706.724915,587.487366 707.192444,586.271973 708.735718,586.327942 
	C710.124512,588.200256 708.833313,589.827332 708.190247,591.411743 
	C705.624878,597.732483 703.299744,604.186279 700.212585,610.248108 
	C697.890320,614.807983 699.268982,619.428711 698.913147,623.951355 
	C697.673645,639.706360 696.909302,655.509460 696.396973,671.308350 
	C695.602417,695.811584 698.485229,720.169495 699.845886,744.586304 
	C700.200073,750.940491 699.450439,757.227112 699.216125,763.544250 
	C699.160889,765.031311 698.845154,766.179993 700.240723,767.516968 
	C703.395813,770.539917 702.731323,772.370667 698.536865,773.500854 
	C693.364502,774.894653 688.224792,773.634460 683.150208,773.088135 
	C675.037170,772.214600 667.084778,770.261292 659.519775,767.113647 
	C654.638733,765.082642 650.277222,762.129333 648.748779,756.713318 
	C644.184448,740.539978 638.105957,724.873962 632.965210,708.894653 
	C621.693359,673.857788 614.166138,637.984680 608.569458,601.658752 
	C606.635193,589.104248 606.770935,576.610229 607.363708,563.916504 
	C608.076172,548.661133 605.117859,533.515198 602.198792,518.498657 
	C598.358704,498.743805 592.420837,479.530518 587.306396,460.104431 
	C586.503357,457.054230 586.178223,454.039795 587.468750,450.820526 
	C588.133911,451.177338 588.830994,451.328217 588.893555,451.616638 
	C593.364807,472.242615 601.337769,491.885773 605.673828,512.581360 
	C609.162842,529.233459 612.518799,546.069824 612.005127,562.904114 
	C610.496460,612.343201 625.029053,658.603821 638.004944,705.250549 
	C642.452698,721.239807 648.615967,736.724182 652.029114,753.026489 
	C652.803101,756.723572 656.113342,758.181274 659.225159,759.370056 
	C666.402954,762.111816 673.903320,763.651917 681.906006,764.902344 
z"/>
<path fill="#000000" opacity="1.000000" stroke="none" 
	d="
M645.251709,946.835693 
	C636.846130,938.670105 627.646362,932.043579 618.708740,925.096130 
	C617.788818,924.381165 616.603943,923.851074 615.978882,922.936584 
	C608.825928,912.472046 597.521240,913.308716 586.994568,912.457458 
	C580.539978,911.935486 573.987793,912.675598 567.519348,912.247070 
	C563.387207,911.973389 560.413940,913.836914 557.632507,916.104431 
	C552.604797,920.203308 547.843628,924.630920 543.002258,928.956055 
	C539.966553,931.667969 539.868713,934.196838 542.730347,937.456421 
	C548.973755,944.567749 555.749146,951.305359 560.073181,959.931885 
	C560.856506,961.494690 561.912292,962.880310 560.282471,964.360596 
	C558.482849,965.995117 556.699585,964.982788 555.408264,963.684265 
	C551.419495,959.672974 547.296875,955.734253 543.790222,951.319397 
	C539.440369,945.842773 533.480286,944.503540 527.279663,944.475159 
	C515.970825,944.423279 504.632233,944.668030 493.354065,945.466980 
	C471.581329,947.009216 449.802094,947.509338 427.985382,947.310181 
	C411.162323,947.156677 394.336517,947.315002 377.511993,947.296692 
	C375.061432,947.294006 372.470154,947.602234 370.521423,945.470703 
	C370.878632,943.228577 372.686676,943.750916 374.025574,943.660339 
	C392.794250,942.390381 411.585693,941.472046 430.397034,941.710388 
	C456.737244,942.044006 482.917969,939.257019 509.179962,938.092651 
	C517.156494,937.738953 525.076599,938.141296 533.834778,940.138123 
	C530.293030,932.224609 534.261719,927.469299 539.385986,923.239258 
	C545.935059,917.833313 552.618958,912.566772 560.252502,908.763306 
	C564.644226,906.575195 569.628967,906.900696 574.389832,906.317810 
	C588.882385,904.543274 602.911133,907.038574 616.755005,910.977722 
	C618.816223,911.564209 621.406555,912.042297 622.019714,914.777649 
	C621.059814,917.259766 618.704529,915.888611 616.493530,917.173767 
	C621.130676,920.450867 625.435791,923.608276 629.856995,926.593689 
	C638.854370,932.669434 647.754700,938.838318 653.961304,948.032898 
	C654.815552,949.298340 655.979309,949.510132 657.356445,949.711121 
	C675.018921,952.287842 692.816895,952.847778 710.617493,953.417786 
	C713.365540,953.505798 715.888916,951.402588 718.954163,952.547546 
	C718.223999,956.657166 714.862732,957.352112 711.972046,958.074585 
	C702.518066,960.437378 692.885559,960.604614 683.194824,959.957092 
	C672.554260,959.246155 662.173462,956.875183 651.660767,955.357788 
	C649.631042,955.064758 648.757385,953.979309 648.228699,952.308899 
	C647.625671,950.403442 647.105957,948.471619 645.251709,946.835693 
z"/>
<path fill="#000000" opacity="1.000000" stroke="none" 
	d="
M268.664917,675.708435 
	C266.161713,675.326843 267.293396,673.920776 267.362366,672.694153 
	C268.259796,656.735046 273.272827,641.710327 278.104675,626.702820 
	C292.428589,582.213196 307.164062,537.855957 321.456329,493.356323 
	C330.454437,465.340332 337.593475,436.861755 340.759338,407.507233 
	C341.718292,398.615631 344.115936,389.882599 343.605774,380.825989 
	C343.476715,378.534851 344.943115,376.727661 346.007507,374.886169 
	C354.257294,360.612823 362.874084,346.557556 372.102509,332.899323 
	C373.963074,330.145660 375.516235,325.727051 381.131195,327.466736 
	C373.940857,338.749817 367.302124,349.817566 360.007233,360.434448 
	C352.481110,371.387970 347.509644,382.239349 346.732422,396.441071 
	C344.748047,432.702667 336.010345,467.934174 324.857819,502.514618 
	C307.762726,555.520935 290.837036,608.581848 273.739075,661.587280 
	C272.231415,666.261169 272.611053,671.591980 268.664917,675.708435 
z"/>
<path fill="#000000" opacity="1.000000" stroke="none" 
	d="
M456.939606,243.388245 
	C453.918915,242.287094 451.311401,241.231567 448.687836,240.217636 
	C443.855835,238.350220 443.251892,234.632935 443.856842,230.062424 
	C444.447968,225.595886 447.788757,225.121094 451.055084,224.671982 
	C458.065491,223.708069 465.003021,221.693390 472.217468,223.320343 
	C476.595978,224.307739 480.198486,225.849304 480.335480,231.118286 
	C480.459412,235.883728 477.775391,239.182434 472.593567,240.657806 
	C471.796356,240.884781 470.987732,241.071732 470.178833,241.275787 
	C468.464142,242.133896 471.328156,243.899200 467.870911,245.143524 
	C465.354919,245.189651 461.337036,244.446350 456.939606,243.388245 
M455.875610,235.716949 
	C461.658508,233.813263 468.491211,235.436325 473.928223,231.329041 
	C472.186829,228.468628 470.175903,228.387924 468.170013,228.355270 
	C464.013794,228.287628 459.881958,228.350357 455.767853,229.212448 
	C453.604004,229.665863 450.945831,229.719498 450.756012,232.311417 
	C450.579285,234.724792 453.314392,234.910965 455.875610,235.716949 
z"/>
<path fill="#000000" opacity="1.000000" stroke="none" 
	d="
M603.968567,951.893311 
	C616.670166,951.654175 628.753601,950.401733 640.786621,946.566650 
	C640.635681,950.023682 638.564453,950.638123 636.870361,951.496033 
	C629.958130,954.996948 622.546448,956.595459 614.890747,957.552979 
	C602.957275,959.045654 591.022278,959.064087 579.065613,958.260986 
	C577.006714,958.122681 574.064453,958.109009 574.037781,955.333374 
	C574.008728,952.299255 576.977478,952.772400 579.037231,952.695923 
	C587.181946,952.393372 595.329956,952.179932 603.968567,951.893311 
z"/>
<path fill="#000000" opacity="1.000000" stroke="none" 
	d="
M617.138062,871.085571 
	C610.619812,879.955505 604.215149,888.460388 596.943298,896.268066 
	C596.036682,897.241455 595.153076,898.243286 594.177368,899.143616 
	C592.903381,900.319092 591.351501,901.394409 589.765808,900.020020 
	C587.911560,898.413025 589.603516,896.932922 590.565857,895.755615 
	C595.514038,889.701721 600.690063,883.831421 605.557190,877.714478 
	C613.943970,867.174255 622.149536,856.489990 630.463440,845.891479 
	C631.646912,844.382874 632.633911,842.552368 636.359497,841.901794 
	C630.672485,852.802185 623.681824,861.597046 617.138062,871.085571 
z"/>
<path fill="#000000" opacity="1.000000" stroke="none" 
	d="
M318.996826,233.010147 
	C327.352722,231.839386 335.519531,233.811844 343.740204,234.706619 
	C353.619720,235.781921 363.476532,237.138107 373.100189,239.737122 
	C375.566986,240.403305 378.272491,240.963684 379.375214,244.781342 
	C372.079163,243.594650 365.300751,242.711349 358.496094,242.066772 
	C347.601288,241.034760 336.707123,239.823883 325.906250,238.101822 
	C323.403137,237.702728 317.942566,240.037537 318.888123,233.301453 
	C319.036682,232.978241 319.008759,232.998199 318.996826,233.010147 
z"/>
</svg>