<svg version="1.1" id="Layer_1" xmlns="http://www.w3.org/2000/svg" xmlns:xlink="http://www.w3.org/1999/xlink" x="0px" y="0px"
	 width="100%" viewBox="0 0 1024 1024" enable-background="new 0 0 1024 1024" xml:space="preserve">
<path fill="#000000" opacity="1.000000" stroke="none" 
	d="
M363.013336,925.991272 
	C364.893555,930.310486 366.516327,934.531250 364.187317,939.353088 
	C360.217224,947.572510 351.508820,949.333923 344.971558,942.968323 
	C344.149506,942.167847 343.651855,941.034180 342.874573,939.859314 
	C339.202118,942.552673 336.363373,944.820557 333.340485,946.808411 
	C328.674133,949.876953 325.690674,949.443848 321.893341,945.320862 
	C318.489624,941.625183 315.836060,937.416199 313.804932,932.735168 
	C309.090698,939.468994 301.410248,939.726013 293.508911,933.214661 
	C288.738464,929.283386 284.098907,926.149841 277.293884,927.087646 
	C273.849426,927.562378 272.222504,923.700134 270.758057,920.940186 
	C265.275757,910.608521 261.208557,899.687988 257.681793,888.559998 
	C249.604370,863.072937 244.679123,837.039856 242.434006,810.345520 
	C240.988617,793.160156 240.308411,776.158569 242.971298,759.101501 
	C243.156219,757.916992 243.361664,756.944458 242.256714,755.964417 
	C224.943298,740.608521 220.437805,720.461121 219.604370,698.365295 
	C217.530273,643.376648 234.880966,594.630432 265.500153,549.830872 
	C279.800262,528.908264 293.848236,507.724762 303.169312,484.040894 
	C309.496826,467.963257 314.001923,451.178101 319.746368,434.858734 
	C326.587372,415.424225 331.521118,395.187958 342.631104,377.470184 
	C352.980469,360.965485 362.835754,344.131592 374.507721,328.490570 
	C376.807159,325.409180 377.767700,322.185333 377.729187,318.309631 
	C377.646484,309.984222 377.880554,301.649536 378.245483,293.330109 
	C378.339783,291.180115 377.811005,289.733673 376.067230,288.757477 
	C362.123291,280.951630 349.583862,270.869080 335.308960,263.610138 
	C332.524139,262.194031 329.313538,261.501587 328.323578,257.836182 
	C327.912842,256.315399 326.221100,256.462585 324.943390,256.172974 
	C315.334900,253.994888 305.425476,254.127365 295.764191,252.360931 
	C293.640381,251.972641 291.476776,251.720154 289.408295,251.134109 
	C287.355896,250.552612 285.065552,249.975800 284.457367,247.469162 
	C283.844971,244.945053 285.590485,243.424103 287.234192,242.005432 
	C296.400604,234.093933 306.632538,227.916306 317.965515,223.665314 
	C324.809448,221.098129 331.685699,218.474533 339.178802,218.513260 
	C340.397522,218.519547 341.330994,218.237656 342.243500,217.261520 
	C371.328827,186.147507 404.286255,159.372574 437.272644,132.638626 
	C450.243347,122.126457 465.768219,118.768044 481.878387,117.029305 
	C497.478455,115.345612 513.168213,113.506790 528.366150,118.717155 
	C546.374390,124.891037 563.924500,132.112854 577.308228,146.615616 
	C579.876831,149.398972 583.025696,151.758301 586.216614,153.838135 
	C610.021790,169.354813 624.175659,191.492523 631.705200,218.529541 
	C636.519287,235.815781 642.450439,252.787628 644.797424,270.699738 
	C647.180725,288.889496 647.914673,307.172272 648.291565,325.481659 
	C648.321838,326.952789 648.187805,328.570007 647.606689,329.888611 
	C642.649414,341.136261 645.778809,351.933258 650.017090,362.284912 
	C667.109680,404.033081 684.085449,445.831604 702.208862,487.152924 
	C708.559814,501.633057 714.461609,516.324097 720.113586,531.092834 
	C725.503174,545.175720 732.758545,558.294922 740.301392,571.225830 
	C751.301270,590.083008 759.033020,610.247437 765.184998,631.029175 
	C773.731445,659.899658 780.912048,689.085266 785.437317,718.936462 
	C789.581726,746.275146 790.159058,773.749756 789.026306,801.182312 
	C787.770630,831.594177 781.102539,861.153809 770.796326,889.870850 
	C765.947876,903.380554 760.949890,916.657837 752.649597,928.631409 
	C747.875427,935.518372 740.918213,939.932617 735.763428,946.229004 
	C721.456116,963.704346 702.356506,965.698486 681.834473,962.814575 
	C674.562500,961.792542 667.316895,961.021729 659.958374,961.264465 
	C654.301758,961.451172 648.667664,961.237610 643.016663,960.435364 
	C634.189331,959.182190 625.422913,960.883667 616.653076,961.747559 
	C611.168884,962.287659 605.580566,962.812866 600.238586,961.557495 
	C592.596313,959.761597 585.090027,959.848572 577.486755,961.285889 
	C576.670776,961.440125 575.745911,961.765686 575.021057,961.537354 
	C568.642334,959.527832 562.264099,959.753784 555.799316,961.083862 
	C554.828125,961.283691 553.041138,960.704773 552.634155,959.947388 
	C549.822205,954.714294 544.759033,956.529175 540.487061,955.644226 
	C514.986633,950.361572 489.152161,950.732483 463.358093,951.268616 
	C447.959198,951.588684 432.845398,949.795898 417.601715,948.180786 
	C405.470123,946.895447 393.967957,942.822083 381.818268,941.896240 
	C374.884430,941.367920 369.003357,938.404419 366.599915,930.923035 
	C366.066467,929.262451 364.574005,927.909973 363.144775,925.888550 
	C356.976959,914.162415 347.191223,906.517944 337.335297,899.706360 
	C324.072876,890.540466 315.705353,878.360596 309.552612,864.026367 
	C301.781189,845.921021 296.455017,826.988159 290.961731,808.148193 
	C287.576630,796.538574 284.671478,784.696289 283.612152,772.559998 
	C283.417725,770.332825 282.563965,767.527222 286.042450,765.677917 
	C288.638672,771.059326 289.820953,776.697144 291.246765,782.197327 
	C298.315033,809.464355 307.269409,836.100525 318.555542,861.890442 
	C323.110687,872.299561 329.402191,881.688721 339.212280,888.307068 
	C351.955688,896.904358 363.543121,906.595581 372.048340,919.890320 
	C376.964020,927.574097 381.776825,937.094849 393.938141,935.090149 
	C394.085632,935.065857 394.252716,935.192566 394.415405,935.224487 
	C413.870300,939.033997 433.473633,942.053711 453.321045,941.569702 
	C469.976959,941.163574 486.625427,941.112122 503.278595,940.999512 
	C510.797485,940.948608 518.229736,941.765869 525.607361,943.175110 
	C528.004517,943.632996 530.421814,944.288574 532.911926,943.272400 
	C533.059875,935.315308 537.506042,929.870239 542.624268,924.618774 
	C546.293213,920.854492 549.609192,917.137451 554.810181,921.505920 
	C557.437805,919.210266 559.621460,917.619202 557.906494,914.065674 
	C556.891785,911.963013 558.417908,909.883179 559.891296,908.218506 
	C562.367920,905.420288 565.375549,903.206970 568.905579,902.117432 
	C582.951538,897.782166 595.038940,890.083496 607.061157,881.801270 
	C614.419250,876.732422 619.698547,870.659424 623.607910,863.012817 
	C625.195618,859.907349 626.365723,856.590210 627.770752,853.388977 
	C629.908264,848.518799 631.315674,843.302612 634.444824,838.902771 
	C635.478516,837.449402 636.618469,835.373840 638.702698,836.110779 
	C641.187134,836.989319 640.436890,839.533752 640.082275,841.352661 
	C639.255981,845.591309 638.284790,849.825562 637.004150,853.947205 
	C633.239136,866.065125 627.587219,877.354553 617.564148,885.308594 
	C604.148132,895.955322 590.274475,906.196899 572.861267,909.723145 
	C572.776550,909.740295 572.740051,909.995728 572.580505,910.385498 
	C579.081543,913.993042 589.402100,912.677063 589.719421,925.609497 
	C599.234009,915.152893 609.541809,914.769897 620.742432,917.360413 
	C624.697388,918.275208 627.502441,920.017639 629.515625,923.226074 
	C632.617249,928.169189 635.318176,933.349731 637.340088,938.830017 
	C639.207764,943.892456 637.849243,946.706848 632.822327,948.577271 
	C629.520752,949.805603 626.158081,950.869873 622.822754,952.007690 
	C629.704407,951.699219 636.422058,950.272522 643.219421,951.742554 
	C648.815857,952.952942 654.481873,952.694702 660.142517,952.683350 
	C666.470886,952.670715 672.804016,953.310059 679.091370,953.376648 
	C693.062683,953.524536 707.916687,958.170227 719.514893,944.842041 
	C727.098694,936.127075 736.934875,929.552368 743.775940,919.915283 
	C751.829773,908.569702 755.999023,895.593628 760.919678,882.863953 
	C771.215149,856.229431 777.099915,828.529602 778.430786,800.184082 
	C779.955994,767.699890 777.546814,735.313660 771.291809,703.264771 
	C768.609070,689.518921 764.482239,676.146912 761.657837,662.466064 
	C756.452576,637.252502 748.728027,612.850769 738.332458,589.336792 
	C734.975708,581.744080 730.413757,574.684265 726.403076,567.380676 
	C726.489502,572.654724 725.570190,577.583740 724.803284,582.481323 
	C722.772400,595.451965 719.932312,608.321289 718.460693,621.349121 
	C714.895203,652.913696 715.682007,684.478149 719.781860,715.982178 
	C721.417419,728.550293 722.867981,741.254822 719.238586,753.687378 
	C714.155396,771.100281 706.129028,787.937622 685.790771,787.761169 
	C678.712097,787.699768 674.557983,785.963379 671.589050,779.484070 
	C670.975342,778.144836 670.074707,776.907898 669.155884,775.742371 
	C661.316711,765.798279 653.638184,755.718994 645.539429,745.989868 
	C627.904846,724.805054 618.851379,700.178223 615.652405,673.124390 
	C613.912842,658.412781 612.760803,643.612549 610.457703,628.991821 
	C607.922668,612.899414 603.596436,597.094971 602.361877,580.778320 
	C601.093445,564.014099 600.524963,547.174988 597.679138,530.572876 
	C595.041077,515.183044 592.014343,499.860046 589.182495,484.503204 
	C588.514954,480.883484 588.022400,477.239685 589.687927,473.732330 
	C590.207825,472.637726 591.016907,471.702728 592.402710,472.068512 
	C593.500732,472.358368 593.924377,473.199829 593.742249,474.369995 
	C593.024353,478.982483 594.925598,483.192749 595.940247,487.505188 
	C600.925049,508.691742 606.233032,529.795959 608.600769,551.513672 
	C610.115051,565.402954 609.981873,579.516113 612.988342,593.182556 
	C619.217346,621.497681 622.575500,650.222046 626.512146,678.888184 
	C629.386841,699.821716 637.293945,719.002869 650.281494,735.868530 
	C659.226196,747.484192 668.315796,758.988220 677.305176,770.569702 
	C683.228455,778.200867 693.374512,778.446045 699.764709,771.006226 
	C708.812317,760.472412 712.451111,748.008057 711.719910,734.409668 
	C711.005127,721.117249 709.728455,707.843018 708.303650,694.603333 
	C705.415466,667.764282 706.671387,641.051636 710.596069,614.449158 
	C712.899963,598.833069 717.068970,583.510193 718.307434,567.716187 
	C718.760864,561.934143 719.923462,555.895569 717.774902,550.401123 
	C708.681641,527.146484 699.439758,503.944824 689.859619,480.886902 
	C675.551941,446.450592 661.121521,412.066345 647.375000,377.400085 
	C646.637573,375.540375 645.688660,373.764496 644.838257,371.949585 
	C644.378784,374.687378 644.682983,377.159271 644.773132,379.638947 
	C645.236694,392.386383 649.964539,404.302734 651.953064,416.753662 
	C653.308838,425.243011 653.756897,433.661499 650.436951,441.821930 
	C648.469055,446.659302 645.262512,447.623016 640.938782,444.781494 
	C639.420776,443.783875 637.976562,442.581024 636.756042,441.237885 
	C621.991821,424.990662 609.401489,407.127441 600.214783,387.241272 
	C590.235046,365.638550 575.042480,349.902222 553.215637,340.566040 
	C545.258545,337.162506 537.225159,333.936798 529.216492,330.654755 
	C527.716370,330.040009 526.267212,328.976379 524.498352,329.966003 
	C521.424561,331.685822 518.381653,330.804260 515.310059,329.862732 
	C508.154541,327.669342 501.004852,325.525085 493.414612,325.280670 
	C472.938965,324.621460 452.464447,324.190918 431.974335,324.278229 
	C418.177795,324.337036 404.345978,325.319824 390.598450,324.008392 
	C386.460419,323.613647 384.042450,324.591827 381.894440,327.692261 
	C367.087769,349.063904 352.675323,370.729767 341.557343,394.271423 
	C332.449249,413.557312 327.098145,434.306122 320.207764,454.448761 
	C318.280518,460.082733 315.530212,465.573273 315.362549,471.672028 
	C314.580444,500.119812 313.650024,528.517944 310.559418,556.876648 
	C306.849548,590.917664 299.679230,624.173706 290.300110,656.968079 
	C282.734192,683.422546 270.745880,708.292480 260.627197,733.813171 
	C252.819626,753.504883 247.696793,773.340942 249.416321,794.504517 
	C250.668213,809.912720 252.064285,825.368713 254.621902,840.597473 
	C258.456543,863.430176 264.540802,885.744324 273.461700,907.201233 
	C276.051422,913.430176 280.998474,916.859314 286.883606,919.610901 
	C288.199005,917.577332 288.405609,915.797607 288.705872,913.992859 
	C289.305756,910.386963 289.874512,906.692871 291.743713,903.509766 
	C293.362213,900.753540 295.503082,898.421631 298.721588,900.847046 
	C299.164276,902.723938 297.865051,903.129211 297.548340,904.001160 
	C295.891296,908.562866 294.570984,913.366943 295.753571,918.099304 
	C296.507751,921.117371 300.348816,918.782227 302.361084,920.249634 
	C302.606659,920.428772 302.741638,920.759460 302.929840,921.025757 
	C303.168365,923.577698 300.878235,925.085083 300.177002,927.595215 
	C302.216553,928.208496 303.909821,930.808899 306.212738,928.004028 
	C310.617950,922.638611 310.569885,920.406982 305.988922,915.041626 
	C304.463745,913.255249 302.827332,911.598083 300.676697,910.565796 
	C299.140656,909.828552 298.207794,908.675110 298.768616,906.986633 
	C299.382568,905.138062 301.130768,905.443298 302.593140,905.501465 
	C305.584198,905.620422 307.936768,907.126831 310.105927,909.057373 
	C311.437103,910.242126 312.343933,912.023132 314.348083,912.295715 
	C328.348907,901.510803 334.867584,903.536926 345.587677,922.293274 
	C352.076996,919.668518 357.802094,921.723206 363.013336,925.991272 
M465.599152,177.066559 
	C472.926727,177.110855 480.296448,176.664291 487.574188,177.289001 
	C512.061890,179.390961 533.307739,189.714722 552.726990,204.167694 
	C557.788147,207.934509 562.422974,212.298065 567.077881,216.578598 
	C570.205872,219.455048 569.801575,223.739075 566.369324,223.966415 
	C560.543396,224.352295 558.933472,228.467468 557.303528,232.571426 
	C550.922607,248.637115 548.612671,265.272156 550.738953,282.494781 
	C552.060303,293.197144 550.121948,302.593719 540.624512,309.467010 
	C535.441895,313.217682 531.104980,318.051147 526.468018,323.420166 
	C535.385559,326.989563 543.475403,330.489441 551.746704,333.488800 
	C575.543640,342.118164 593.775085,357.266510 604.657410,380.156372 
	C612.446045,396.539154 622.648315,411.269684 632.929932,426.014496 
	C635.913025,430.292603 639.346802,434.324493 644.114136,437.972504 
	C646.593262,431.613464 645.821533,425.844086 645.272949,420.149414 
	C644.534058,412.479218 640.978821,405.438965 639.751709,397.927368 
	C635.916443,374.451080 632.523315,350.904236 638.093506,327.181671 
	C638.244995,326.536530 638.404785,325.857697 638.361938,325.207703 
	C637.082031,305.786560 637.006409,286.309174 634.226624,266.955658 
	C631.887756,250.671524 626.037781,235.429993 621.884338,219.693390 
	C615.475159,195.410782 602.189880,175.856445 581.041748,161.895599 
	C577.010010,159.234085 573.140015,156.284500 569.939209,152.626236 
	C557.553589,138.470306 540.651489,132.317230 523.615479,126.423004 
	C521.601562,125.726212 519.378479,125.636024 517.253479,125.257935 
	C502.577728,122.646736 488.039551,124.965736 473.503967,126.602188 
	C460.951752,128.015335 449.732056,132.746262 440.057648,140.976913 
	C429.791351,149.711105 419.556671,158.573517 408.972015,166.821182 
	C386.736481,184.147308 366.725647,204.008667 344.316223,221.519211 
	C351.749329,225.094879 359.057587,228.287552 366.109955,232.059143 
	C381.993164,240.553436 396.185303,251.781723 412.152893,260.107971 
	C413.857727,260.996948 415.333038,262.309204 414.759308,264.433472 
	C414.204102,266.489197 412.335571,267.189850 410.404266,267.063873 
	C405.924927,266.771606 401.367065,266.718628 397.002197,265.801605 
	C377.520233,261.708527 357.617432,261.405823 337.891174,259.020447 
	C341.872772,260.359802 345.292175,262.711914 348.927765,264.664764 
	C358.316284,269.707855 366.528381,276.731079 376.436920,280.881958 
	C377.951324,281.516418 379.257477,282.538177 381.123169,281.977661 
	C393.063660,278.390320 405.296356,275.604187 416.211731,269.222351 
	C420.122772,266.935699 421.607330,263.821930 421.388763,258.904236 
	C420.967834,249.431915 417.816223,241.132080 413.459076,232.934128 
	C409.232117,224.981110 407.304321,216.500046 409.621674,207.391342 
	C413.176422,193.419006 421.005035,183.566681 435.369049,179.677917 
	C444.975769,177.077103 454.874237,177.907257 465.599152,177.066559 
M405.500305,316.995758 
	C424.994965,316.900360 444.493408,316.528351 463.983124,316.795044 
	C480.252350,317.017639 496.658264,316.104065 512.628174,320.510132 
	C515.023376,321.170990 516.647522,320.029175 518.351929,318.432190 
	C523.576111,313.537415 528.544373,308.208344 534.390686,304.177185 
	C542.722046,298.432648 544.394958,290.970367 543.367493,281.613861 
	C541.071350,260.705688 544.806030,240.865707 555.456787,222.558060 
	C556.777466,220.287872 556.193298,219.000366 554.504578,217.453720 
	C540.702209,204.812607 525.119568,195.266144 507.321655,189.210678 
	C486.462769,182.113785 464.830780,184.356094 443.482635,183.614792 
	C434.476105,183.302017 426.371460,186.668610 421.129639,195.076080 
	C413.512329,207.293625 413.100525,219.383179 420.602875,231.768173 
	C426.233948,241.063965 429.538879,251.095932 429.032898,262.096283 
	C428.745941,268.335175 426.247101,272.943329 420.044556,275.765381 
	C410.582611,280.070374 400.824524,283.204498 390.692963,285.271667 
	C387.923798,285.836700 386.470337,287.030518 385.868652,289.981018 
	C384.246674,297.934967 385.351532,305.915894 385.179169,313.878357 
	C385.124878,316.385345 387.073395,316.725220 389.011932,316.763672 
	C394.174347,316.866089 399.337708,316.921448 405.500305,316.995758 
M306.934387,522.627014 
	C307.585541,511.829681 308.236725,501.032318 308.887909,490.234985 
	C297.538086,513.256958 284.654022,535.040649 270.172668,555.846375 
	C250.560303,584.024231 237.781387,615.160400 230.616928,648.480774 
	C226.082199,669.570801 226.839966,691.171936 228.438583,712.640320 
	C229.497330,726.858521 236.097000,738.437012 245.586990,748.888062 
	C247.770691,746.088989 248.515198,742.987183 249.633789,740.063293 
	C253.917068,728.866943 258.071106,717.619629 262.481232,706.473633 
	C271.052551,684.810730 280.409485,663.467468 286.404846,640.834229 
	C296.608215,602.315063 303.709625,563.291138 306.934387,522.627014 
M361.309113,237.237015 
	C354.550720,233.326706 347.767700,229.457947 341.048889,225.480804 
	C339.034119,224.288208 337.048523,224.108566 334.844727,224.669388 
	C321.658722,228.025055 309.458618,233.513855 298.440186,241.526031 
	C297.177032,242.444565 295.512970,243.142609 295.082336,245.569611 
	C326.314606,248.885376 357.152130,254.731522 388.427979,255.580460 
	C380.249512,248.956146 371.051819,243.339111 361.309113,237.237015 
M618.540161,945.946167 
	C622.035339,944.517212 625.530579,943.088318 628.944214,941.692810 
	C628.786621,938.603882 627.022522,936.680908 625.920715,934.504089 
	C620.920532,924.624695 608.919189,921.032349 599.141968,926.622070 
	C591.424500,931.034180 585.730286,937.637939 580.908691,944.949646 
	C579.182068,947.567932 576.717773,949.941223 576.253235,953.686584 
	C590.749756,953.326294 604.678772,952.027588 618.540161,945.946167 
M582.335938,929.959290 
	C581.513855,926.125122 583.030762,921.368042 577.774963,919.337708 
	C571.876526,917.059143 567.113159,918.242249 563.128723,923.178467 
	C557.883972,929.676086 556.695007,937.290344 557.234680,945.274231 
	C557.392822,947.613037 555.958008,951.222778 558.600037,952.075867 
	C561.827087,953.117920 565.540710,951.926758 568.285828,949.528809 
	C569.755615,948.244934 570.849243,946.482239 571.940491,944.822449 
	C575.138123,939.959167 578.223206,935.020386 582.335938,929.959290 
M319.418518,921.197449 
	C318.730225,927.962280 321.545074,933.480713 325.547180,938.605286 
	C327.185608,940.703247 328.776733,940.915771 331.054077,939.362427 
	C337.850433,934.726685 339.074524,928.200684 334.400085,920.322876 
	C329.688721,912.382874 324.312347,912.420959 319.418518,921.197449 
M547.502502,940.826355 
	C551.039734,936.647339 549.446289,930.984436 552.003113,926.505981 
	C548.315613,929.113770 545.261047,932.086426 543.098328,935.842651 
	C542.297241,937.233887 541.140320,938.791809 542.369080,940.386047 
	C543.505188,941.859741 545.200928,941.864258 547.502502,940.826355 
M353.571106,937.366638 
	C356.073486,935.230835 355.471344,933.328918 352.969269,931.839172 
	C351.246552,930.813477 348.875183,929.735229 347.752472,932.086609 
	C346.663757,934.366943 348.729828,936.060242 350.565094,937.261841 
	C351.174530,937.660828 352.143433,937.510681 353.571106,937.366638 
z"/>
<path fill="#000000" opacity="1.000000" stroke="none" 
	d="
M437.145142,230.641266 
	C435.147369,228.312729 435.763550,226.781708 437.860352,225.468353 
	C443.642090,221.846832 449.622620,218.628220 456.037994,216.256470 
	C458.467194,215.358398 461.025909,215.337479 463.414642,215.878723 
	C469.550201,217.268890 475.671692,218.791214 481.683685,220.635910 
	C487.201477,222.328949 489.237640,227.314728 485.933899,231.966736 
	C481.299011,238.493256 475.305511,243.948318 466.633270,243.199127 
	C457.818848,242.437668 448.664856,242.091339 441.275299,235.935745 
	C439.588379,234.530472 437.958984,233.166397 437.145142,230.641266 
M463.555847,236.680771 
	C471.142029,238.438065 479.475189,233.934433 481.092102,226.985733 
	C468.381409,222.473923 455.718964,217.387848 443.651642,228.526245 
	C448.709167,233.976669 455.934631,234.789536 463.555847,236.680771 
z"/>
</svg>