<svg version="1.1" id="Layer_1" xmlns="http://www.w3.org/2000/svg" xmlns:xlink="http://www.w3.org/1999/xlink" x="0px" y="0px"
	 width="100%" viewBox="0 0 1024 1024" enable-background="new 0 0 1024 1024" xml:space="preserve">
<path fill="#000000" opacity="1.000000" stroke="none" 
	d="
M293.029724,937.978760 
	C290.720245,938.664551 289.359131,937.116760 287.762939,935.886841 
	C266.725586,919.676025 255.149078,897.556213 248.403046,872.523804 
	C242.270493,849.767761 238.682144,826.585938 238.931702,802.983582 
	C239.097153,787.333740 241.222260,771.808167 244.037903,756.415710 
	C244.525040,753.752747 244.125793,752.094543 242.083466,750.355103 
	C224.571854,735.441040 218.064148,715.443970 215.591782,693.433044 
	C211.845078,660.077087 222.645889,630.153320 236.322449,600.669739 
	C253.023987,564.665039 275.116394,531.955261 297.129669,499.171448 
	C298.882050,496.561707 301.069122,494.223267 303.207642,491.900024 
	C304.873901,490.089844 307.064728,489.213318 309.551056,489.779144 
	C311.658356,490.258667 312.464020,491.623718 310.924103,493.393646 
	C302.520477,503.052399 297.898468,515.008240 291.181458,525.688904 
	C272.791199,554.931274 256.350922,585.221191 242.830765,617.033203 
	C233.495773,638.997864 227.227722,661.719482 228.435699,685.860718 
	C229.398987,705.111877 232.550430,723.939514 241.888046,741.202209 
	C242.737534,742.772766 243.336456,744.549622 245.266174,745.833130 
	C247.346176,740.243896 247.605148,734.416809 248.940643,728.845947 
	C253.960648,707.905945 261.565186,687.800781 268.804047,667.593018 
	C282.585419,629.121582 293.473572,589.970764 300.031097,549.541077 
	C303.970856,525.250793 311.034668,501.557129 316.876709,477.635895 
	C326.810730,436.959106 341.969940,397.956696 354.672455,358.168488 
	C356.709595,351.787537 359.905396,345.946777 363.497284,340.291962 
	C369.580902,330.714264 378.342438,324.835205 388.798248,320.923248 
	C404.518036,315.041779 420.773590,310.996063 437.425812,310.360596 
	C452.005188,309.804230 466.730225,311.010925 481.285675,312.480927 
	C494.750000,313.840668 508.209015,312.198761 521.621460,313.535858 
	C522.266907,313.600220 522.942932,313.402985 523.599976,313.297943 
	C535.348450,311.420074 536.221130,310.589233 534.687134,299.221405 
	C531.151001,273.016449 532.710266,247.393402 542.465881,222.557129 
	C543.313843,220.398239 543.866821,218.103912 544.364563,215.830414 
	C546.169067,207.587555 544.527771,200.695267 537.954285,194.611328 
	C527.934631,185.337921 515.835388,181.541962 502.955078,178.799286 
	C481.628784,174.258118 461.037628,176.238953 440.651794,183.799973 
	C426.280273,189.130310 420.186737,199.961395 418.354919,214.146530 
	C416.171295,231.056076 422.022675,245.261002 433.490814,257.369568 
	C434.842163,258.796387 435.509369,259.854645 434.896454,261.625397 
	C434.256195,263.475037 433.130035,265.188995 431.044769,264.939789 
	C427.888275,264.562531 425.607635,266.239014 423.182343,267.599854 
	C410.689423,274.609650 397.007935,279.280029 384.964722,287.192169 
	C377.862427,291.858246 377.642212,291.746216 379.518524,299.956055 
	C380.908295,306.036957 381.784393,312.098389 380.171936,318.214172 
	C379.525970,320.664307 379.456573,323.607635 376.348541,325.030579 
	C375.900177,324.609070 375.154572,324.251953 375.041656,323.751984 
	C371.697144,308.941284 366.362946,294.756256 361.566406,280.398865 
	C360.293243,276.588013 358.091400,274.036987 354.796509,271.632477 
	C339.565430,260.517303 322.551880,252.960846 305.269073,245.862808 
	C302.941162,244.906754 300.946838,244.267319 298.311676,245.921661 
	C296.038605,247.348709 292.844818,247.836334 290.479431,245.268631 
	C288.219818,242.815765 288.740967,240.052475 289.873566,237.311584 
	C293.231384,229.185242 302.181396,223.434998 311.188232,223.566299 
	C312.013824,223.578339 312.964630,223.709259 313.648926,223.367615 
	C321.371185,219.512314 329.742859,216.864182 336.495361,211.194519 
	C338.186981,209.774185 339.660187,208.374481 338.801788,205.723206 
	C338.195862,203.851791 339.339050,202.177261 340.370789,200.636459 
	C360.771942,170.170181 384.978058,143.423950 415.575317,122.753281 
	C431.694092,111.863892 449.695404,107.544319 468.672455,105.595863 
	C488.309601,103.579628 507.459656,105.166641 526.500610,110.508881 
	C542.154480,114.900818 554.980713,124.164406 567.951660,133.121338 
	C584.623535,144.633911 599.244324,158.712250 612.349304,174.020844 
	C628.780334,193.214783 639.045837,215.549149 642.470886,240.944885 
	C646.059326,267.551544 642.020935,293.001221 632.454773,317.788086 
	C630.177368,323.688843 630.789368,329.492798 633.540039,334.706238 
	C654.292908,374.039795 673.988647,413.970398 696.500183,452.327240 
	C727.526428,505.192230 752.909729,560.792236 777.493958,616.753601 
	C793.833252,653.947021 803.961914,693.221802 809.022827,733.517151 
	C814.965088,780.829834 810.944031,827.445862 796.714783,873.180420 
	C789.877197,895.157288 783.321411,917.184082 772.265869,937.482971 
	C763.131714,954.253967 748.797852,964.301392 730.159729,968.299377 
	C713.097473,971.959351 695.980774,969.389099 678.887085,968.762512 
	C666.305603,968.301331 654.345642,964.374451 642.159058,961.750549 
	C638.016296,960.858643 634.068054,959.689697 630.651001,963.460938 
	C629.847412,964.347839 628.590942,964.503784 627.005676,963.431458 
	C628.765808,960.449280 629.687195,957.178589 628.798096,953.564636 
	C628.514832,952.412903 629.519409,951.116943 630.740295,951.005188 
	C635.117615,950.604492 634.844788,947.404907 634.948608,944.406067 
	C635.250732,935.680603 632.386353,928.044922 626.845703,921.386230 
	C625.597046,919.885681 623.270691,918.547852 624.930420,916.410278 
	C626.695129,914.137573 629.285217,915.060486 631.260193,916.389404 
	C639.592957,921.996155 642.407410,930.482727 643.372498,939.953247 
	C643.733154,943.492554 642.038391,946.769104 642.257935,950.649414 
	C650.539246,951.879089 658.691467,953.740967 666.919861,954.182129 
	C686.855957,955.250916 706.830994,956.282043 726.710266,952.945923 
	C737.580566,951.121643 746.302429,944.828125 755.541565,939.588379 
	C757.696106,938.366516 758.376221,935.947327 759.398499,933.873779 
	C772.825867,906.638977 780.217102,877.404541 787.743835,848.215210 
	C795.855225,816.758911 797.228516,784.792175 794.944092,752.558472 
	C791.312561,701.316956 777.478638,652.660156 756.779236,605.917664 
	C742.145508,572.872314 727.866028,539.621643 711.335632,507.472595 
	C694.049438,473.853668 674.839233,441.249786 658.117798,407.306305 
	C651.048401,392.955811 644.052368,378.587097 637.477051,364.008209 
	C636.064209,360.875580 634.581360,357.774475 632.773499,353.891418 
	C631.164490,363.281647 629.769897,371.744659 628.249939,380.185120 
	C627.094788,386.599091 625.341064,392.867340 622.372681,398.691498 
	C618.182678,406.912689 610.833923,407.731201 604.806946,400.662659 
	C602.979614,398.519592 601.368896,396.139801 599.972839,393.689606 
	C591.014282,377.966064 578.543640,365.291473 565.202820,353.358398 
	C557.503235,346.471252 549.793274,339.595642 542.100891,332.700500 
	C539.032776,329.950409 536.877136,326.939087 540.982056,321.351593 
	C525.090332,328.574066 510.788818,323.412476 496.360321,322.317413 
	C482.264099,321.247559 468.020569,322.045074 453.940491,320.854492 
	C435.249603,319.274048 417.641266,323.454834 399.875702,328.195679 
	C381.519318,333.094208 370.532990,344.739197 364.825653,362.422821 
	C348.003510,414.544647 330.718750,466.493073 319.178375,520.182251 
	C313.754425,545.416077 310.379150,571.011597 304.566833,596.135925 
	C296.901337,629.270813 286.535858,661.624146 274.827148,693.521973 
	C263.902679,723.283325 257.989685,754.030518 255.168076,785.482300 
	C251.786667,823.174011 256.138794,859.885620 268.965698,895.551392 
	C273.759460,908.880615 281.061951,920.727905 289.851654,931.733948 
	C291.193756,933.414429 292.789917,934.958679 292.970581,937.652039 
	C293.002930,938.001282 293.029724,937.978760 293.029724,937.978760 
M392.662933,156.166275 
	C378.479340,167.938293 366.733521,182.023697 354.885742,196.009842 
	C354.146942,196.881958 352.851898,198.194199 353.087402,198.832245 
	C354.603088,202.938507 350.979858,204.729950 349.547607,207.482819 
	C348.745880,209.023926 346.783936,209.967407 347.047150,211.934265 
	C367.653015,218.665527 387.870361,225.706512 402.709778,243.226364 
	C402.869415,243.179260 403.486511,242.986420 404.109711,242.815659 
	C405.475922,242.441254 406.884796,241.062592 408.242432,242.512650 
	C409.542419,243.901215 408.359192,245.357254 407.836060,246.673737 
	C404.011139,256.299255 398.379913,264.523834 389.923096,270.798981 
	C384.954437,274.485840 379.294586,276.634827 373.479187,278.619354 
	C374.978729,283.187347 377.223511,281.333252 379.017883,280.082825 
	C386.310883,275.000580 394.287537,271.264740 402.419281,267.791443 
	C408.779327,265.074860 415.091583,262.246429 421.323151,259.512421 
	C421.063660,258.545807 421.056702,258.179413 420.881897,257.931274 
	C420.307648,257.115997 419.708221,256.312653 419.055359,255.559387 
	C408.582336,243.475235 405.319824,229.259293 406.747131,213.694672 
	C408.728851,192.084518 419.402008,177.552460 440.627899,170.928726 
	C461.707275,164.350754 482.736023,162.144714 504.593781,167.044388 
	C521.193420,170.765396 536.622070,175.955460 548.568298,188.817352 
	C555.669312,196.462631 558.389893,205.179810 556.539368,215.442169 
	C555.379578,221.874084 553.263123,228.022171 551.016663,234.095215 
	C543.034302,255.674057 542.159302,278.022980 543.402771,300.627258 
	C543.542053,303.159332 543.838928,305.725403 547.462036,305.706116 
	C550.628845,305.689301 550.760254,307.888580 550.358398,310.244690 
	C549.979980,312.463287 548.536255,314.128479 547.283386,315.892548 
	C544.246704,320.168213 545.281250,325.446686 549.841980,328.166046 
	C555.009827,331.247345 559.792847,334.853577 564.578674,338.470276 
	C581.906433,351.565277 598.840698,365.054565 610.583069,383.819397 
	C610.893433,384.315491 611.492065,384.631134 612.223511,385.261078 
	C612.769409,384.037842 613.312927,383.193939 613.532104,382.272888 
	C616.880371,368.198914 620.202576,354.118622 623.464355,340.024414 
	C623.674011,339.118408 623.699097,337.528290 623.199036,337.206787 
	C620.561768,335.511200 622.043335,333.028534 621.566528,330.927917 
	C620.529236,326.358185 623.805359,323.106598 624.557922,319.127625 
	C628.154480,300.113037 630.364929,281.001953 629.853455,261.578674 
	C629.223450,237.652786 622.357910,215.737183 609.840332,195.466293 
	C599.868225,179.317551 585.464172,167.269897 571.590149,154.860184 
	C558.273621,142.949142 543.717346,132.325562 527.002747,125.787506 
	C506.424561,117.738190 484.771820,117.132713 463.006042,119.853477 
	C453.403503,121.053818 443.881042,122.640755 435.011261,126.817322 
	C419.475739,134.132629 406.192108,144.710281 392.662933,156.166275 
M386.415894,255.931396 
	C388.998535,254.221802 391.630524,252.563385 393.551331,249.492340 
	C377.464508,241.261520 362.478790,231.878769 345.733002,225.949341 
	C341.168335,224.333054 337.125397,224.457794 332.805389,226.632828 
	C327.307922,229.400711 321.580048,231.708099 315.993591,234.304474 
	C314.786530,234.865448 313.044342,234.917282 312.689728,236.893509 
	C313.518402,237.252731 314.253754,237.632584 315.028259,237.898239 
	C331.929962,243.695450 348.443787,250.289917 363.321777,260.454285 
	C368.814331,264.206696 374.408173,264.465118 379.870087,260.007355 
	C381.660645,258.545959 383.817993,257.533936 386.415894,255.931396 
z"/>
<path fill="#000000" opacity="1.000000" stroke="none" 
	d="
M716.301636,661.291931 
	C715.217346,681.013367 718.312317,699.923035 720.856567,718.885071 
	C723.826477,741.019531 726.364685,763.113892 720.399292,785.262146 
	C717.504028,796.011414 712.585266,805.383362 704.828552,813.287903 
	C701.007019,817.182312 696.495789,819.999695 691.023010,820.810242 
	C686.673645,821.454407 682.921509,820.446106 680.485107,815.834290 
	C684.345459,813.789917 688.787109,813.210144 690.939575,808.653748 
	C686.821838,808.359802 682.982361,808.506042 679.326355,807.756958 
	C654.048218,802.577454 635.791687,788.280273 625.542969,764.573486 
	C617.427002,745.800232 614.631531,725.540710 610.749817,705.640503 
	C606.941040,686.114502 606.766541,666.441162 607.271912,646.524536 
	C608.036011,616.412659 609.017456,586.211792 606.528992,556.105408 
	C604.659485,533.487610 602.000671,511.019867 591.210632,490.415436 
	C588.915344,486.032318 587.132141,481.238190 587.410034,476.076782 
	C587.505371,474.307098 587.550598,472.105896 590.058472,471.938293 
	C592.637939,471.765869 591.914856,474.055542 592.456360,475.487335 
	C593.747620,478.902222 594.819641,482.511047 596.746704,485.556580 
	C609.457520,505.644592 614.392578,528.056824 617.295044,551.230103 
	C619.847839,571.611877 620.661621,592.033081 620.426392,612.540833 
	C620.266052,626.521423 620.721924,640.515747 620.291626,654.485168 
	C619.388672,683.801025 626.395447,711.872742 632.694580,740.135071 
	C639.271240,769.642212 657.690918,788.036133 685.430908,797.703674 
	C699.042786,802.447449 699.313354,803.044800 704.780334,788.862427 
	C710.339111,774.441589 711.942322,759.223450 710.171265,743.700195 
	C707.890625,723.709473 705.142822,703.727600 704.010437,683.662048 
	C702.682556,660.131470 706.147827,636.863342 711.005493,613.822632 
	C713.439392,602.278259 715.473938,590.650085 717.737488,579.069214 
	C718.438599,575.481812 719.021851,571.805420 721.327637,568.796814 
	C722.496399,567.271729 724.124390,566.138062 726.090393,567.163025 
	C727.896606,568.104675 726.912842,569.689087 726.570740,571.127319 
	C724.518250,579.757141 724.995544,588.653198 723.851685,597.398438 
	C721.629272,614.390076 717.942932,631.188782 717.060242,648.357117 
	C716.846619,652.512695 716.562744,656.664612 716.301636,661.291931 
z"/>
<path fill="#000000" opacity="1.000000" stroke="none" 
	d="
M538.858765,939.931213 
	C544.935303,925.678223 555.997803,917.275146 569.389832,911.471252 
	C571.634521,910.498352 574.176758,910.032227 576.628784,909.763489 
	C579.625183,909.435059 582.427307,910.117676 583.218933,913.632935 
	C583.989807,917.055603 582.078186,918.916077 579.092468,920.042297 
	C572.041260,922.702148 565.463196,926.239624 559.333130,930.635681 
	C555.107849,933.665833 552.340698,937.718628 550.643250,942.551697 
	C549.423767,946.023926 550.357849,948.708496 553.646973,950.577637 
	C557.937988,953.015930 562.659424,953.928040 567.435181,954.687012 
	C582.938843,957.151306 598.647888,956.449707 614.230530,957.703186 
	C615.533142,957.807983 616.908997,957.420410 618.259277,958.509949 
	C618.684875,961.986450 615.835815,963.184387 613.505737,964.471619 
	C608.772034,967.086914 603.470886,968.056335 598.201111,968.765381 
	C583.573425,970.733459 569.004578,970.953552 554.719055,966.367004 
	C551.842468,965.443420 548.743713,964.523376 546.757080,962.350708 
	C542.655396,957.865173 537.776611,958.077698 532.331970,958.247314 
	C512.521484,958.864319 492.694763,958.936890 472.878662,959.404236 
	C465.899384,959.568787 458.939392,960.459839 451.959534,960.706543 
	C424.167664,961.688904 397.160645,958.358948 371.723358,946.140320 
	C364.324585,942.586243 360.422363,935.482178 354.590485,930.348389 
	C348.725616,925.185730 343.477905,919.344910 337.277557,914.505005 
	C323.990540,904.133484 311.221405,905.998535 296.547363,914.978271 
	C292.838013,917.248291 293.111633,919.109436 296.503082,921.934631 
	C298.413544,923.526001 301.344696,923.429016 302.732422,925.806396 
	C299.725525,929.070923 295.451630,929.173462 289.823151,926.154419 
	C285.031189,923.583984 283.376068,920.303955 284.576233,915.539917 
	C285.896027,910.300964 289.780243,907.118225 293.989227,904.337952 
	C318.537842,888.122559 349.671661,897.281616 360.907074,924.593811 
	C363.442810,930.757935 367.481354,933.730591 372.871338,935.837341 
	C388.636047,941.999023 405.015076,945.314575 421.895996,946.745605 
	C438.941711,948.190552 455.772247,946.144531 472.702393,945.091797 
	C492.312866,943.872437 511.975647,943.411438 531.637024,943.715393 
	C534.669983,943.762207 537.306824,943.398804 538.858765,939.931213 
z"/>
<path fill="#000000" opacity="1.000000" stroke="none" 
	d="
M477.860901,214.586456 
	C480.849701,214.502487 483.308960,214.794250 485.637299,215.836685 
	C491.107544,218.285751 492.812988,224.184540 489.485504,229.133240 
	C484.595459,236.405792 468.163177,242.084366 459.752686,239.453430 
	C458.090210,238.933380 456.673920,238.230972 455.790436,235.856506 
	C461.286682,232.966904 466.870178,230.031433 473.134155,226.738205 
	C463.945801,226.502472 456.765137,229.902878 449.673340,233.610001 
	C447.292114,234.854752 444.717834,236.465530 442.652924,233.353714 
	C440.640808,230.321533 442.399536,227.974411 444.701904,226.028824 
	C454.135254,218.057251 465.129028,214.491486 477.860901,214.586456 
z"/>
<path fill="#000000" opacity="1.000000" stroke="none" 
	d="
M319.871857,891.198181 
	C312.513367,885.968079 308.474579,878.729126 305.206177,871.006775 
	C294.857452,846.555237 289.711029,820.960815 288.670746,794.490234 
	C288.618622,793.164124 288.525726,791.783752 288.817169,790.512451 
	C289.318878,788.323792 289.418823,785.157593 292.296875,785.187134 
	C295.663879,785.221619 294.006989,788.474182 294.372375,790.316711 
	C299.793152,817.652283 304.213531,845.212402 312.669983,871.863586 
	C314.652100,878.110352 317.781281,883.764221 322.129333,888.714844 
	C322.880920,889.570557 323.882751,890.581726 322.821289,891.736633 
	C321.984802,892.646851 320.996307,891.981873 319.871857,891.198181 
z"/>
<path fill="#000000" opacity="1.000000" stroke="none" 
	d="
M292.991211,938.014282 
	C297.221436,936.783020 301.475555,936.846252 305.819061,937.576233 
	C318.034546,939.629150 330.369568,939.011658 342.672729,938.970337 
	C345.520874,938.960754 348.354736,939.030640 351.071045,939.888611 
	C354.774658,941.058533 355.339813,943.876831 352.482880,946.585083 
	C350.856934,948.126343 348.773865,948.749634 346.660736,949.273499 
	C335.095673,952.140503 323.542358,951.530579 312.062561,948.892944 
	C306.726227,947.666870 301.516113,945.901062 296.216125,944.503662 
	C293.013855,943.659363 291.684479,941.923645 292.928223,938.317627 
	C293.029724,937.978760 293.002930,938.001282 292.991211,938.014282 
z"/>
</svg>