<svg version="1.1" id="Layer_1" xmlns="http://www.w3.org/2000/svg" xmlns:xlink="http://www.w3.org/1999/xlink" x="0px" y="0px"
	 width="100%" viewBox="0 0 657 657" enable-background="new 0 0 657 657" xml:space="preserve">
<path fill="none" opacity="1.000000" stroke="#000000" stroke-linecap="round" stroke-linejoin="round" stroke-width="3.000000"
	d="
M570.500000,404.000031 
	C555.166687,406.666687 539.875183,409.614746 524.485962,411.905548 
	C513.391418,413.557068 502.129395,414.057251 491.007904,415.558502 
	C469.023926,418.525970 446.909607,420.343262 424.978760,423.867920 
	C401.080261,427.708740 377.238007,431.732269 353.473022,436.361572 
	C330.034302,440.927368 306.773163,446.240814 283.519104,451.583130 
	C259.847534,457.021362 236.040665,461.776672 211.979401,464.838135 
	C190.137100,467.617249 168.340958,470.726044 146.508850,473.567993 
	C131.296219,475.548279 116.186317,478.305511 100.993774,480.455994 
	C88.857941,482.173798 76.666664,483.500000 64.500000,485.000000 
"/>
<path fill="none" opacity="1.000000" stroke="#000000" stroke-linecap="round" stroke-linejoin="round" stroke-width="4.000000"
	d="
M604.500000,358.499969 
	C586.500000,361.333313 568.490723,364.109222 550.503296,367.020447 
	C538.819031,368.911560 527.187317,371.132080 515.493652,372.959259 
	C505.691284,374.490906 495.788574,375.403534 486.011444,377.067261 
	C474.053741,379.102081 462.028381,380.536011 450.000427,382.003510 
	C436.695770,383.626770 423.373993,385.035553 410.004059,386.053406 
	C400.483124,386.778198 391.020660,388.345825 381.494904,388.914520 
	C368.916443,389.665527 356.468719,391.403625 344.004181,393.031982 
	C325.821259,395.407410 307.656921,397.933838 289.514679,400.599823 
	C287.649445,400.873871 285.826782,400.761383 284.000000,401.000000 
"/>
<path fill="none" opacity="1.000000" stroke="#000000" stroke-linecap="round" stroke-linejoin="round" stroke-width="3.000000"
	d="
M396.500000,179.500000 
	C395.256683,179.565063 394.864288,181.017548 392.970886,180.649887 
	C377.856384,177.714706 362.690826,175.017532 347.491394,172.553024 
	C337.536926,170.938934 327.480865,169.960846 317.505371,168.464218 
	C307.480957,166.960236 297.526245,164.984268 287.494019,163.541595 
	C271.349640,161.219986 255.154358,159.253738 239.004272,156.969803 
	C227.989365,155.412079 216.954086,154.029434 205.980515,152.111511 
	C195.403885,150.262939 184.647568,149.468445 174.005096,147.963943 
	C162.149521,146.287964 150.308670,144.477158 138.507828,142.454315 
	C129.135635,140.847763 119.833336,138.833344 110.500000,137.000000 
"/>
<path fill="none" opacity="1.000000" stroke="#000000" stroke-linecap="round" stroke-linejoin="round" stroke-width="3.000000"
	d="
M411.500000,367.500000 
	C411.500000,357.166656 411.840698,346.817444 411.359802,336.506531 
	C411.110138,331.153107 412.862946,326.224060 413.184540,321.011383 
	C413.486420,316.118286 413.913483,315.590820 408.999603,315.557800 
	C403.137115,315.518402 397.305054,315.337433 391.499695,314.502075 
	C387.354767,313.905640 383.232300,313.221893 378.996002,313.409363 
	C377.877838,313.458862 376.642456,312.983887 375.426849,312.100677 
	C368.061615,306.749451 360.271332,302.014282 352.929565,296.595428 
	C349.420654,294.005493 345.127808,293.003448 340.494293,293.439423 
	C329.253357,294.497162 318.150513,292.330414 307.005646,291.430023 
	C289.650940,290.027954 272.332886,288.171356 255.000153,286.498383 
	C242.999344,285.340088 230.987106,284.282349 219.005966,282.946503 
	C213.769348,282.362640 208.628723,282.157227 203.500000,283.500000 
"/>
<path fill="none" opacity="1.000000" stroke="#000000" stroke-linecap="round" stroke-linejoin="round" stroke-width="3.000000"
	d="
M372.500000,221.500000 
	C367.815247,219.563614 362.731140,220.109070 358.004791,220.214539 
	C344.311676,220.520050 331.054260,217.071594 317.501099,216.475342 
	C309.161896,216.108459 300.839172,215.343185 292.498749,215.033371 
	C276.275757,214.430786 260.363800,211.862137 244.478058,208.607117 
	C229.489105,205.535843 214.334656,203.472122 199.014404,202.310043 
	C187.513977,201.437729 175.995758,200.891769 164.500000,200.000000 
"/>
<path fill="none" opacity="1.000000" stroke="#000000" stroke-linecap="round" stroke-linejoin="round" stroke-width="3.000000"
	d="
M414.500000,482.499969 
	C398.000000,488.166626 381.583710,494.093201 364.980988,499.440948 
	C338.021729,508.124573 310.735687,515.667114 282.998840,521.494507 
	C280.148529,522.093323 277.505798,523.566284 274.500000,523.500000 
"/>
<path fill="none" opacity="1.000000" stroke="#000000" stroke-linecap="round" stroke-linejoin="round" stroke-width="3.000000"
	d="
M41.500000,140.500000 
	C32.942368,141.045166 24.678989,143.123810 16.521673,145.572205 
	C13.918383,146.353592 12.938548,148.801895 13.005108,151.499878 
	C13.326615,164.532181 11.644804,177.499008 11.581517,190.500397 
	C11.463888,214.665680 11.925431,238.833145 11.972156,263.000061 
	C12.012793,284.018005 10.046657,304.966370 9.727177,325.995850 
	C9.481782,342.148834 8.537329,358.319397 8.509284,374.500031 
	C8.502631,378.338043 7.785525,382.114014 8.895654,386.029572 
	C10.259526,390.840118 12.006944,392.816406 16.994793,392.432373 
	C20.682413,392.148438 24.066961,393.150696 27.488182,394.045197 
	C30.264631,394.771057 31.884655,396.948669 33.000000,399.500000 
"/>
<path fill="none" opacity="1.000000" stroke="#000000" stroke-linecap="round" stroke-linejoin="round" stroke-width="3.000000"
	d="
M520.000000,262.500000 
	C518.941223,257.558807 516.935669,254.186111 511.028961,253.305679 
	C504.402924,252.318008 497.828461,250.285095 491.539093,247.897018 
	C481.410248,244.051086 471.119385,245.807663 461.014191,246.667023 
	C441.010254,248.368225 421.040436,249.104156 400.998688,248.024323 
	C400.509094,247.997925 400.000000,248.333328 399.500000,248.500000 
"/>
<path fill="none" opacity="1.000000" stroke="#000000" stroke-linecap="round" stroke-linejoin="round" stroke-width="3.000000"
	d="
M140.000000,317.750000 
	C153.666672,317.166656 167.391968,317.163025 180.978622,315.788605 
	C189.505341,314.926056 198.015701,315.400299 206.518982,314.747101 
	C209.321228,314.531891 212.218948,314.382996 214.979691,313.886932 
	C216.874878,313.546387 220.090393,314.444611 220.363983,311.487427 
	C220.638672,308.518616 221.771942,304.965454 218.970581,302.533905 
	C210.278366,294.989044 201.497787,287.573059 192.077011,280.891418 
	C186.464249,276.910614 180.307846,276.133423 173.999329,276.082001 
	C154.975266,275.926971 135.980392,275.188446 117.002319,273.964081 
	C113.057343,273.709595 109.896507,275.637756 106.575958,277.203217 
	C104.596451,268.934296 105.236481,260.643585 104.711769,252.486374 
	C103.664116,236.198990 103.817589,219.833633 103.505722,203.499893 
	C103.308441,193.167145 103.149277,182.833557 103.017227,172.499786 
	C102.995354,170.788086 102.539619,168.941254 104.000000,167.500000 
"/>
<path fill="none" opacity="1.000000" stroke="#000000" stroke-linecap="round" stroke-linejoin="round" stroke-width="3.000000"
	d="
M397.500000,169.500000 
	C396.774628,178.000000 397.935669,186.470901 397.693237,195.005493 
	C396.983490,219.990067 397.133331,244.999863 397.027313,270.000122 
	C397.005432,275.165985 397.307068,280.334351 397.507904,285.499695 
	C397.686951,290.105408 398.518951,294.157471 402.392242,297.620514 
	C407.543884,302.226440 412.121094,307.453522 418.500000,310.500000 
"/>
<path fill="none" opacity="1.000000" stroke="#000000" stroke-linecap="round" stroke-linejoin="round" stroke-width="3.000000"
	d="
M52.500000,234.500000 
	C53.846241,236.401703 52.971432,238.480545 53.118683,240.491302 
	C55.144047,268.148346 53.589775,295.834442 53.893974,323.501160 
	C53.976818,331.035675 54.784004,338.494446 55.041107,345.998596 
	C55.075718,347.008820 55.666668,348.000000 56.000004,349.000000 
"/>
<path fill="none" opacity="1.000000" stroke="#000000" stroke-linecap="round" stroke-linejoin="round" stroke-width="4.000000"
	d="
M596.500000,349.500000 
	C596.118652,350.451996 596.096252,351.438110 594.504028,351.554657 
	C579.830505,352.628632 565.165588,353.819519 550.500366,355.004761 
	C540.498352,355.813141 530.507324,356.771667 520.497803,357.468811 
	C511.506927,358.095032 502.601410,360.010284 493.490234,359.097321 
	C491.724762,358.920380 489.836609,360.012421 487.999359,360.497650 
	C482.750305,361.883972 477.076691,360.414368 472.051453,362.149048 
	C465.082428,364.554810 458.471710,363.541931 451.471161,362.757324 
	C446.057953,362.150635 440.354858,364.254089 434.930542,364.983124 
	C427.553802,365.974548 420.087402,367.401306 412.505463,367.660034 
	C401.484161,368.036163 390.500000,369.500000 379.500000,370.500000 
"/>
<path fill="none" opacity="1.000000" stroke="#000000" stroke-linecap="round" stroke-linejoin="round" stroke-width="3.000000"
	d="
M322.500000,315.000000 
	C310.321381,314.896820 298.127350,314.221252 285.998657,315.990875 
	C285.509094,316.062286 284.999512,316.014679 284.500061,315.997864 
	C270.980438,315.543091 257.485382,316.465149 244.008896,317.170013 
	C238.529251,317.456665 232.856018,316.416138 227.500000,318.500000 
"/>
<path fill="none" opacity="1.000000" stroke="#000000" stroke-linecap="round" stroke-linejoin="round" stroke-width="3.000000"
	d="
M531.500000,443.499969 
	C502.333313,452.833313 473.149292,462.113342 444.032654,471.600189 
	C441.677582,472.367493 438.488586,471.528900 437.000000,474.500000 
"/>
<path fill="none" opacity="1.000000" stroke="#000000" stroke-linecap="round" stroke-linejoin="round" stroke-width="4.000000"
	d="
M153.000000,164.500000 
	C153.666672,178.333328 154.265213,192.170456 155.031967,205.998230 
	C155.360336,211.920120 155.005234,212.494125 149.000000,212.494446 
	C137.657410,212.495056 126.307159,212.723145 115.000000,211.500000 
"/>
<path fill="none" opacity="1.000000" stroke="#000000" stroke-linecap="round" stroke-linejoin="round" stroke-width="2.000000"
	d="
M435.500000,281.500000 
	C435.500000,306.833344 435.493256,332.166656 435.514008,357.500000 
	C435.515503,359.338684 435.156647,361.228180 436.000000,363.000000 
"/>
<path fill="none" opacity="1.000000" stroke="#000000" stroke-linecap="round" stroke-linejoin="round" stroke-width="3.000000"
	d="
M159.000000,224.500000 
	C160.015625,237.313248 160.919342,250.130844 161.016129,263.039276 
	C152.444595,265.492615 144.504745,262.506653 136.502167,262.371552 
	C131.350189,262.284576 126.290581,260.566010 120.993561,260.896973 
	C118.857658,261.030426 117.302666,260.041443 116.857559,257.020996 
	C115.238342,246.033279 113.158760,235.116943 112.471741,224.001740 
	C112.351166,222.051025 113.752769,220.964203 114.500000,219.500000 
"/>
<path fill="none" opacity="1.000000" stroke="#000000" stroke-linecap="round" stroke-linejoin="round" stroke-width="3.000000"
	d="
M162.000000,360.500000 
	C163.782425,358.044189 162.801956,356.668304 160.562210,354.920288 
	C154.447952,350.148346 147.165604,348.328491 139.976456,346.597809 
	C123.391800,342.605194 106.432854,342.716461 89.500786,343.040863 
	C88.827965,343.053772 88.166656,343.666656 87.499992,343.999969 
"/>
<path fill="none" opacity="1.000000" stroke="#000000" stroke-linecap="round" stroke-linejoin="round" stroke-width="2.000000"
	d="
M642.500000,419.500000 
	C631.988464,420.328827 621.857910,423.298889 611.518372,425.105255 
	C598.774780,427.331543 586.163269,430.317444 573.504089,433.019012 
	C571.807922,433.380981 570.166687,434.000000 568.500000,434.500000 
"/>
<path fill="none" opacity="1.000000" stroke="#000000" stroke-linecap="round" stroke-linejoin="round" stroke-width="3.000000"
	d="
M450.000000,268.500000 
	C444.587097,265.328918 438.865845,263.397003 432.505280,262.928436 
	C420.045258,262.010559 413.921631,271.181946 417.515991,282.995148 
	C420.617920,293.189819 420.536804,303.561218 419.482605,313.998230 
	C419.187927,316.915558 417.482666,318.311676 414.500000,318.000000 
"/>
<path fill="none" opacity="1.000000" stroke="#000000" stroke-linecap="round" stroke-linejoin="round" stroke-width="2.000000"
	d="
M107.500000,358.000000 
	C102.161438,363.422272 99.748962,370.630127 96.131645,377.073914 
	C94.150711,380.602631 92.245583,382.598145 87.991859,382.064941 
	C84.197266,381.589264 80.131203,380.813995 76.539230,381.665497 
	C67.089821,383.905457 57.833332,380.794006 48.500000,381.500000 
"/>
<path fill="none" opacity="1.000000" stroke="#000000" stroke-linecap="round" stroke-linejoin="round" stroke-width="5.000000"
	d="
M489.000000,290.500000 
	C491.363007,294.439270 486.910126,296.988770 486.901459,300.499756 
	C486.899353,301.334747 485.600433,302.122467 485.010040,303.006683 
	C477.806366,313.795868 479.317383,319.843597 491.030823,326.445282 
	C492.600037,327.329651 494.083862,327.730713 494.034363,330.000763 
	C493.827118,339.506256 494.481476,349.040283 493.000000,358.500000 
"/>
<path fill="none" opacity="1.000000" stroke="#000000" stroke-linecap="round" stroke-linejoin="round" stroke-width="4.000000"
	d="
M323.500000,315.500000 
	C322.195374,326.305206 321.203308,337.133606 320.425476,347.994659 
	C319.588318,359.684906 318.166656,371.333344 317.000000,383.000000 
"/>
<path fill="none" opacity="1.000000" stroke="#000000" stroke-linecap="round" stroke-linejoin="round" stroke-width="4.000000"
	d="
M110.500000,166.000000 
	C111.754738,183.672440 113.009483,201.344864 114.258057,218.930511 
	C120.221153,220.648270 126.178505,220.210968 132.007935,220.936279 
	C137.136673,221.574417 142.344818,222.046860 147.496704,221.891068 
	C152.463943,221.740860 153.752869,225.108795 154.389175,228.520676 
	C155.800766,236.089584 156.081192,243.793579 155.500000,251.500000 
"/>
<path fill="none" opacity="1.000000" stroke="#000000" stroke-linecap="round" stroke-linejoin="round" stroke-width="4.000000"
	d="
M108.500000,135.000000 
	C97.500000,134.390091 86.495827,133.731827 75.501442,135.012405 
	C67.959145,135.890884 60.349514,136.282135 52.978897,138.427490 
	C51.288754,138.919434 49.333332,138.500000 47.500000,138.500000 
"/>
<path fill="none" opacity="1.000000" stroke="#000000" stroke-linecap="round" stroke-linejoin="round" stroke-width="3.000000"
	d="
M267.500000,223.500000 
	C268.607819,241.670441 269.143494,259.877106 270.963470,278.003662 
	C271.077759,279.142120 270.666656,280.333344 270.500000,281.500000 
"/>
<path fill="none" opacity="1.000000" stroke="#000000" stroke-linecap="round" stroke-linejoin="round" stroke-width="3.000000"
	d="
M366.500000,322.500000 
	C364.166656,339.833344 361.841003,357.167694 359.488831,374.498474 
	C359.238495,376.343079 358.833344,378.166656 358.500031,380.000000 
"/>
<path fill="none" opacity="1.000000" stroke="#000000" stroke-linecap="round" stroke-linejoin="round" stroke-width="3.000000"
	d="
M346.500000,221.000000 
	C348.071991,234.125961 347.962646,247.314240 348.023315,260.499878 
	C348.046326,265.500549 348.333313,270.500000 348.499969,275.500000 
"/>
<path fill="none" opacity="1.000000" stroke="#000000" stroke-linecap="round" stroke-linejoin="round" stroke-width="3.000000"
	d="
M565.500000,334.500000 
	C562.369324,332.820099 559.049805,332.464020 555.503784,332.365082 
	C552.480713,332.280701 549.811646,331.435242 549.338013,327.017365 
	C548.373474,318.021484 548.063354,309.005188 547.552246,299.997040 
	C547.236389,294.429443 546.214722,292.491760 540.987488,291.571075 
	C536.477173,290.776672 532.160889,288.964600 527.500000,289.000000 
"/>
<path fill="none" opacity="1.000000" stroke="#000000" stroke-linecap="round" stroke-linejoin="round" stroke-width="8.000000"
	d="
M95.500000,348.500000 
	C89.553024,349.325806 83.939346,346.573059 77.996750,346.948517 
	C72.351387,347.305176 66.497139,346.530273 61.519653,350.027954 
	C56.141094,353.807556 54.104126,359.862885 51.500000,365.500000 
"/>
<path fill="none" opacity="1.000000" stroke="#000000" stroke-linecap="round" stroke-linejoin="round" stroke-width="3.000000"
	d="
M375.000000,314.000000 
	C372.800598,316.328583 369.945648,316.634064 367.000549,316.488892 
	C353.999268,315.847931 341.001129,315.142487 327.998047,314.542267 
	C326.860321,314.489746 325.537018,313.925842 324.500000,315.000000 
"/>
<path fill="none" opacity="1.000000" stroke="#000000" stroke-linecap="round" stroke-linejoin="round" stroke-width="3.000000"
	d="
M218.500000,206.500000 
	C218.666672,223.166672 218.833344,239.833328 219.000000,256.500000 
"/>
<path fill="none" opacity="1.000000" stroke="#000000" stroke-linecap="round" stroke-linejoin="round" stroke-width="3.000000"
	d="
M108.000000,337.000000 
	C107.833336,329.833344 109.207924,322.183197 107.146324,315.610931 
	C103.883301,305.208679 106.082596,294.780457 104.550011,284.492554 
	C104.193382,282.098602 104.534531,279.626434 106.286270,277.090271 
	C109.438644,284.239288 116.688438,285.012817 122.523987,287.952393 
	C125.385536,289.393890 128.429581,290.601532 131.522659,291.413696 
	C133.922684,292.043884 134.152115,293.700256 134.492599,295.501404 
	C135.621185,301.471497 136.078796,307.465393 135.000000,313.500000 
"/>
<path fill="none" opacity="1.000000" stroke="#000000" stroke-linecap="round" stroke-linejoin="round" stroke-width="11.000000"
	d="
M101.500000,414.500000 
	C98.266685,408.722198 92.862511,404.759521 88.714218,399.735992 
	C86.028198,396.483246 80.334518,397.344299 76.026093,398.590240 
	C72.008224,399.752167 68.469704,400.889526 63.939465,399.738220 
	C57.924583,398.209717 51.367344,397.697418 45.998596,402.498444 
	C45.147442,403.259583 44.102150,403.836426 43.009628,403.471191 
	C34.505356,400.628357 26.971918,405.275360 19.000000,406.500000 
"/>
<path fill="none" opacity="1.000000" stroke="#000000" stroke-linecap="round" stroke-linejoin="round" stroke-width="3.000000"
	d="
M210.000000,346.000000 
	C224.111618,345.827332 238.041687,347.974060 252.036774,348.996674 
	C258.605713,349.476685 263.035431,351.715912 266.869171,355.628204 
	C271.930481,360.793213 279.529175,362.631012 283.725677,369.035828 
	C281.622559,373.998260 283.772278,379.646057 281.000000,384.500000 
"/>
<path fill="none" opacity="1.000000" stroke="#000000" stroke-linecap="round" stroke-linejoin="round" stroke-width="3.000000"
	d="
M490.500000,292.500000 
	C497.401611,292.293762 501.382538,296.142761 503.157990,302.455566 
	C505.301453,310.076904 504.965271,316.889435 500.547516,323.531616 
	C499.207428,325.546570 499.253113,328.340851 499.204895,330.504578 
	C498.997345,339.825348 498.418396,349.183014 499.500000,358.500000 
"/>
<path fill="none" opacity="1.000000" stroke="#000000" stroke-linecap="round" stroke-linejoin="round" stroke-width="3.000000"
	d="
M158.500000,387.000000 
	C152.717316,389.311279 146.449539,389.424927 140.494049,390.977142 
	C133.947433,392.683472 127.223976,392.761749 120.503677,393.078064 
	C113.986732,393.384796 107.486679,394.942322 101.004364,394.800568 
	C96.125580,394.693909 92.654427,396.265015 89.500000,399.500000 
"/>
<path fill="none" opacity="1.000000" stroke="#000000" stroke-linecap="round" stroke-linejoin="round" stroke-width="4.000000"
	d="
M401.000000,379.000000 
	C386.823517,379.222076 372.619873,379.814941 358.520660,380.796570 
	C340.853729,382.026581 323.167999,382.875183 305.509003,384.127167 
	C296.996246,384.730652 288.521332,385.210388 280.100739,384.444550 
	C277.756927,391.993225 278.276031,399.371857 277.000000,406.500000 
"/>
<path fill="none" opacity="1.000000" stroke="#000000" stroke-linecap="round" stroke-linejoin="round" stroke-width="4.000000"
	d="
M158.500000,162.500000 
	C155.109940,163.467865 152.008392,163.093277 148.430878,162.319641 
	C143.370255,161.225281 137.818558,162.139297 132.503326,162.543701 
	C123.657791,163.216736 114.833336,164.166672 106.000000,165.000000 
"/>
<path fill="none" opacity="1.000000" stroke="#000000" stroke-linecap="round" stroke-linejoin="round" stroke-width="4.000000"
	d="
M138.000000,360.500000 
	C135.235474,364.073212 133.908356,368.304138 132.498062,372.499359 
	C129.981934,379.984192 127.823982,380.575592 121.504715,380.714539 
	C116.347160,380.827942 111.154762,380.464294 105.492081,380.472015 
	C104.388451,372.889740 108.268402,366.167572 111.958954,359.617737 
	C112.786263,358.149445 116.210922,357.942596 118.507332,357.542023 
	C125.393333,356.340942 132.456528,353.744781 138.549042,359.951843 
	C139.870132,361.297791 142.370193,361.105255 143.500000,363.000000 
"/>
<path fill="none" opacity="1.000000" stroke="#000000" stroke-linecap="round" stroke-linejoin="round" stroke-width="3.000000"
	d="
M19.500000,323.500000 
	C17.188320,313.102386 15.676394,302.580597 14.454318,292.005280 
	C14.152645,289.394745 14.826536,286.335602 12.000000,284.500000 
"/>
<path fill="none" opacity="1.000000" stroke="#000000" stroke-linecap="round" stroke-linejoin="round" stroke-width="3.000000"
	d="
M520.500000,263.500000 
	C522.058899,273.942413 522.492126,284.473846 523.008728,294.999573 
	C523.115173,297.169189 523.333374,299.333344 523.500061,301.500000 
"/>
<path fill="none" opacity="1.000000" stroke="#000000" stroke-linecap="round" stroke-linejoin="round" stroke-width="3.000000"
	d="
M279.500000,385.000000 
	C274.535797,380.562683 269.213287,381.329407 263.463470,383.398468 
	C259.696686,384.753998 255.565475,385.010803 251.500000,385.002960 
	C245.500015,384.991394 239.499878,384.978180 233.500076,385.013824 
	C231.786285,385.023987 229.941254,384.539612 228.500000,386.000000 
"/>
<path fill="none" opacity="1.000000" stroke="#000000" stroke-linecap="round" stroke-linejoin="round" stroke-width="3.000000"
	d="
M44.500000,323.500000 
	C44.463604,333.526825 44.814522,343.528503 45.932064,353.507599 
	C46.198540,355.887054 46.976830,357.943024 48.000000,360.000000 
"/>
<path fill="none" opacity="1.000000" stroke="#000000" stroke-linecap="round" stroke-linejoin="round" stroke-width="3.000000"
	d="
M443.500000,280.500000 
	C445.063141,283.523041 447.798676,285.529083 449.984375,288.013763 
	C454.321625,292.944275 455.525085,298.459351 452.477722,304.488739 
	C450.258484,308.879730 447.833313,313.166656 445.499969,317.500000 
"/>
<path fill="none" opacity="1.000000" stroke="#000000" stroke-linecap="round" stroke-linejoin="round" stroke-width="5.000000"
	d="
M165.000000,380.500000 
	C165.482544,379.203979 166.977158,378.482422 166.096634,376.457977 
	C164.198898,372.094727 162.968857,367.445648 161.194824,363.022125 
	C160.258667,360.687866 154.371399,359.362640 150.510468,360.534485 
	C146.304901,361.810944 142.682404,363.957123 142.549438,369.001312 
	C142.460922,372.359436 140.974487,375.589752 141.690613,379.149933 
	C148.625793,381.435883 156.187042,380.230255 163.000000,383.000000 
"/>
<path fill="none" opacity="1.000000" stroke="#000000" stroke-linecap="round" stroke-linejoin="round" stroke-width="3.000000"
	d="
M398.000000,293.500000 
	C387.591766,293.404724 377.343872,295.298279 367.011047,296.136353 
	C365.431793,296.264404 364.000000,296.418091 362.500000,296.000000 
"/>
<path fill="none" opacity="1.000000" stroke="#000000" stroke-linecap="round" stroke-linejoin="round" stroke-width="4.000000"
	d="
M278.500000,397.000000 
	C281.665436,398.567657 285.131653,400.179810 284.427368,404.488129 
	C283.480896,410.277802 280.859314,415.243805 274.976959,417.438263 
	C271.908722,418.582855 267.227142,415.065674 266.500000,411.500000 
	C265.397369,406.093109 266.864075,402.424255 271.518097,399.529083 
	C273.408569,398.353058 275.500000,397.500000 277.500000,396.500000 
"/>
<path fill="none" opacity="1.000000" stroke="#000000" stroke-linecap="round" stroke-linejoin="round" stroke-width="5.000000"
	d="
M210.500000,316.000000 
	C209.389221,323.813232 210.232834,331.667755 210.023422,339.500641 
	C209.907257,343.846710 209.321106,346.968781 204.768707,349.915161 
	C201.157150,352.252594 198.743393,357.343903 195.687439,361.150482 
	C192.727615,364.837341 188.770813,368.055267 187.453461,372.987579 
	C187.295517,373.578918 186.528946,374.397491 185.995361,374.436340 
	C182.163391,374.715302 181.453293,377.693298 180.500000,380.500000 
"/>
<path fill="none" opacity="1.000000" stroke="#000000" stroke-linecap="round" stroke-linejoin="round" stroke-width="3.000000"
	d="
M68.000000,401.500000 
	C65.048012,413.258209 56.593594,420.292542 44.498356,420.970703 
	C43.347881,421.035187 42.361103,421.249969 41.500000,422.000000 
"/>
<path fill="none" opacity="1.000000" stroke="#000000" stroke-linecap="round" stroke-linejoin="round" stroke-width="4.000000"
	d="
M457.000000,317.500000 
	C456.000000,327.000000 454.919739,336.492615 454.045471,346.004181 
	C453.756866,349.144318 454.000000,352.333344 454.000000,355.500000 
"/>
<path fill="none" opacity="1.000000" stroke="#000000" stroke-linecap="round" stroke-linejoin="round" stroke-width="4.000000"
	d="
M549.500000,330.000000 
	C542.522400,331.106689 535.487671,330.555908 528.503906,330.361053 
	C524.815247,330.258179 521.166687,329.789307 517.500000,330.500000 
"/>
<path fill="none" opacity="1.000000" stroke="#000000" stroke-linecap="round" stroke-linejoin="round" stroke-width="5.000000"
	d="
M203.500000,350.000000 
	C197.685257,348.158051 196.980164,349.285614 192.333664,353.307831 
	C187.335358,357.634552 183.139694,362.487671 179.008713,367.507172 
	C177.950699,368.792755 177.000000,370.166656 176.000000,371.500000 
"/>
<path fill="none" opacity="1.000000" stroke="#000000" stroke-linecap="round" stroke-linejoin="round" stroke-width="2.000000"
	d="
M566.500000,435.500000 
	C556.017151,436.455658 546.078735,439.782806 535.995728,442.483978 
	C535.529175,442.608948 535.000000,442.500000 534.500000,442.500000 
"/>
<path fill="none" opacity="1.000000" stroke="#000000" stroke-linecap="round" stroke-linejoin="round" stroke-width="10.000000"
	d="
M162.500000,413.500000 
	C160.425781,412.806091 158.351562,412.112152 156.022018,411.332794 
	C152.697922,414.702026 147.876266,415.993988 145.154617,420.804596 
	C143.748032,423.290802 138.788055,424.464935 135.015945,423.441254 
	C127.742195,421.467194 120.314438,422.794373 112.980400,422.278809 
	C110.100075,422.076355 106.782516,424.692719 104.076408,426.607971 
	C102.269981,427.886414 100.617546,428.614899 98.500000,428.500000 
"/>
<path fill="none" opacity="1.000000" stroke="#000000" stroke-linecap="round" stroke-linejoin="round" stroke-width="4.000000"
	d="
M139.500000,319.500000 
	C138.483093,315.952240 134.521851,315.652802 132.448669,315.315308 
	C124.393692,314.003998 116.130821,313.576996 108.000000,315.500000 
"/>
<path fill="none" opacity="1.000000" stroke="#000000" stroke-linecap="round" stroke-linejoin="round" stroke-width="2.000000"
	d="
M209.500000,385.500000 
	C200.166672,386.000000 190.830078,386.450989 181.504562,387.068939 
	C180.468109,387.137604 179.494690,388.157410 178.492416,388.735870 
	C179.082870,392.054230 180.414078,395.057190 181.967560,398.017029 
	C183.766174,401.443909 184.274567,404.838440 182.065262,408.538971 
	C178.973312,413.717896 176.258270,419.128754 173.536652,424.518494 
	C172.435776,426.698669 170.733047,427.642456 168.162445,428.182495 
	C165.651306,425.423035 163.071152,422.249268 158.500000,423.500000 
"/>
<path fill="none" opacity="1.000000" stroke="#000000" stroke-linecap="round" stroke-linejoin="round" stroke-width="3.000000"
	d="
M259.500000,353.000000 
	C254.679688,355.296936 249.481216,353.696747 244.475403,354.293854 
	C241.017624,354.706360 238.375046,355.648102 235.983948,357.983551 
	C234.024307,359.897614 232.482269,362.393616 229.500000,363.000000 
"/>
<path fill="none" opacity="1.000000" stroke="#000000" stroke-linecap="round" stroke-linejoin="round" stroke-width="4.000000"
	d="
M4.500000,419.500000 
	C12.192506,417.112427 19.548130,419.787994 26.999187,421.004974 
	C28.837912,421.305298 30.758802,421.413666 32.484673,422.042084 
	C41.898048,425.469788 51.548855,427.769928 61.485878,429.105103 
	C64.410896,429.498138 67.166664,430.162140 70.000000,429.000000 
"/>
<path fill="none" opacity="1.000000" stroke="#000000" stroke-linecap="round" stroke-linejoin="round" stroke-width="4.000000"
	d="
M205.000000,405.000000 
	C205.930725,402.748932 204.326691,400.684113 204.510086,398.500854 
	C205.076218,391.762115 209.957779,387.222961 217.501251,387.057343 
	C227.611145,386.835327 230.411667,388.069946 234.915161,398.536499 
	C236.002014,401.062439 237.213898,402.350922 239.996689,402.546967 
	C246.678650,403.017670 253.390808,403.138062 260.015778,404.418335 
	C261.912720,404.784912 264.000000,404.166687 266.000000,404.000000 
"/>
<path fill="none" opacity="1.000000" stroke="#000000" stroke-linecap="round" stroke-linejoin="round" stroke-width="3.000000"
	d="
M15.500000,420.000000 
	C14.908710,425.910217 19.527088,427.577942 23.526144,429.443970 
	C29.474499,432.219635 36.713417,430.322693 40.000000,425.500000 
"/>
<path fill="none" opacity="1.000000" stroke="#000000" stroke-linecap="round" stroke-linejoin="round" stroke-width="4.000000"
	d="
M585.000000,311.000000 
	C586.101807,318.962402 586.812378,326.944427 586.544800,335.001495 
	C586.494751,336.506744 585.778076,338.308563 587.500000,339.500000 
"/>
<path fill="none" opacity="1.000000" stroke="#000000" stroke-linecap="round" stroke-linejoin="round" stroke-width="3.000000"
	d="
M266.000000,381.500000 
	C263.471893,377.035583 259.168243,377.345490 255.001022,377.524017 
	C249.496857,377.759827 244.000000,378.166656 238.500000,378.500000 
"/>
<path fill="none" opacity="1.000000" stroke="#000000" stroke-linecap="round" stroke-linejoin="round" stroke-width="6.000000"
	d="
M96.500000,415.500000 
	C95.560417,418.724884 97.274475,421.739136 97.176231,425.005310 
	C96.962784,432.101440 91.696930,438.227081 84.500000,438.500031 
	C78.027718,438.745544 73.662407,436.031036 70.920509,430.539703 
	C70.206314,429.109375 70.747879,428.034088 71.071007,427.022675 
	C72.562614,422.353638 71.762543,417.241150 75.227585,412.788025 
	C76.949181,410.575500 75.183266,406.230835 74.000000,403.000000 
"/>
<path fill="none" opacity="1.000000" stroke="#000000" stroke-linecap="round" stroke-linejoin="round" stroke-width="3.000000"
	d="
M182.000000,405.000000 
	C177.807907,403.963287 173.864761,402.559326 170.973602,399.021576 
	C168.433533,395.913422 165.273376,396.941528 162.540482,398.568024 
	C159.692368,400.263153 157.166672,402.500000 154.500000,404.500000 
"/>
<path fill="none" opacity="1.000000" stroke="#000000" stroke-linecap="round" stroke-linejoin="round" stroke-width="5.000000"
	d="
M207.500000,349.000000 
	C210.346054,351.051697 213.685242,351.260071 217.000610,351.491302 
	C223.879120,351.971039 225.798676,353.520355 228.000000,360.500000 
	C229.130768,364.085266 227.109879,372.422485 223.930283,373.844055 
	C220.119141,375.548035 215.780502,375.994171 211.500046,376.011902 
	C204.666534,376.040192 197.838867,375.051270 190.992355,375.941223 
	C190.215469,376.042206 189.333328,375.333344 188.500000,375.000000 
"/>
<path fill="none" opacity="1.000000" stroke="#000000" stroke-linecap="round" stroke-linejoin="round" stroke-width="3.000000"
	d="
M208.000000,350.500000 
	C209.732239,358.634705 209.120163,366.817261 208.500000,375.000000 
"/>
<path fill="none" opacity="1.000000" stroke="#000000" stroke-linecap="round" stroke-linejoin="round" stroke-width="3.000000"
	d="
M50.000000,366.500000 
	C41.903599,370.196167 37.412178,377.924805 31.123198,383.635681 
	C29.204632,385.377869 27.997536,385.701508 25.500134,385.703156 
	C20.551516,385.706421 15.532467,386.586884 11.000000,389.000000 
"/>
<path fill="none" opacity="1.000000" stroke="#000000" stroke-linecap="round" stroke-linejoin="round" stroke-width="3.000000"
	d="
M70.500000,384.000000 
	C76.003456,386.924286 82.194916,385.824677 88.007774,386.960205 
	C90.126144,387.373993 92.393036,386.557220 94.500000,387.500000 
"/>
<path fill="none" opacity="1.000000" stroke="#000000" stroke-linecap="round" stroke-linejoin="round" stroke-width="5.000000"
	d="
M9.000000,390.500000 
	C7.089023,391.843506 6.263805,393.767548 6.527715,395.996704 
	C7.415907,403.499054 7.081818,411.292023 11.500000,418.000000 
"/>
<path fill="none" opacity="1.000000" stroke="#000000" stroke-linecap="round" stroke-linejoin="round" stroke-width="4.000000"
	d="
M104.000000,139.500000 
	C102.990540,146.647064 103.673706,153.833939 103.569420,161.001007 
	C103.557396,161.826889 104.500000,162.666672 105.000000,163.500000 
"/>
<path fill="none" opacity="1.000000" stroke="#000000" stroke-linecap="round" stroke-linejoin="round" stroke-width="2.000000"
	d="
M92.500000,398.500000 
	C98.626961,401.818573 102.015793,407.701355 105.965538,413.025574 
	C107.833176,415.543121 109.333344,418.333344 111.000008,421.000000 
"/>
<path fill="none" opacity="1.000000" stroke="#000000" stroke-linecap="round" stroke-linejoin="round" stroke-width="2.000000"
	d="
M272.500000,364.500000 
	C270.687378,364.486572 269.090576,364.423096 267.440277,363.072998 
	C262.570465,359.089081 256.859222,357.192688 250.500000,357.500000 
"/>
<path fill="none" opacity="1.000000" stroke="#000000" stroke-linecap="round" stroke-linejoin="round" stroke-width="5.000000"
	d="
M178.000000,413.000000 
	C173.134476,410.929901 168.803848,407.343719 162.996719,407.969543 
	C160.394196,408.250000 157.793381,408.264832 157.000000,411.500000 
"/>
<path fill="none" opacity="1.000000" stroke="#000000" stroke-linecap="round" stroke-linejoin="round" stroke-width="3.000000"
	d="
M51.500000,217.500000 
	C60.040642,224.185211 61.267914,230.168167 55.500000,237.000000 
"/>
<path fill="none" opacity="1.000000" stroke="#000000" stroke-linecap="round" stroke-linejoin="round" stroke-width="5.000000"
	d="
M135.500000,393.500000 
	C133.833328,402.833344 132.166656,412.166656 130.500000,421.500000 
"/>
<path fill="none" opacity="1.000000" stroke="#000000" stroke-linecap="round" stroke-linejoin="round" stroke-width="3.000000"
	d="
M148.000000,425.500000 
	C152.304520,432.823853 155.422119,434.577026 162.004791,433.530090 
	C163.125107,433.351868 163.787643,432.701630 164.500000,432.000000 
"/>
<path fill="none" opacity="1.000000" stroke="#000000" stroke-linecap="round" stroke-linejoin="round" stroke-width="3.000000"
	d="
M166.000000,350.500000 
	C168.833328,357.666656 171.666672,364.833344 174.500000,372.000000 
"/>
<path fill="none" opacity="1.000000" stroke="#000000" stroke-linecap="round" stroke-linejoin="round" stroke-width="3.000000"
	d="
M455.000000,350.500000 
	C455.833344,350.833344 456.640106,351.280060 457.504089,351.482513 
	C466.420380,353.571381 467.108704,354.488220 466.000000,363.000000 
"/>
<path fill="none" opacity="1.000000" stroke="#000000" stroke-linecap="round" stroke-linejoin="round" stroke-width="3.000000"
	d="
M607.000000,319.000000 
	C607.219177,325.165253 606.497437,331.355927 607.500000,337.500000 
"/>
<path fill="none" opacity="1.000000" stroke="#000000" stroke-linecap="round" stroke-linejoin="round" stroke-width="6.000000"
	d="
M94.500000,412.500000 
	C89.891014,410.718323 85.180428,411.807892 80.499687,411.991974 
	C79.168404,412.044312 77.833336,412.000000 76.500000,412.000000 
"/>
<path fill="none" opacity="1.000000" stroke="#000000" stroke-linecap="round" stroke-linejoin="round" stroke-width="3.000000"
	d="
M273.500000,362.500000 
	C271.927795,365.414429 273.908630,367.737366 275.079712,369.957977 
	C277.179901,373.940338 277.311920,377.666656 275.000000,381.500000 
"/>
<path fill="none" opacity="1.000000" stroke="#000000" stroke-linecap="round" stroke-linejoin="round" stroke-width="3.000000"
	d="
M235.500000,402.000000 
	C231.255035,408.843872 224.044662,412.537018 218.500000,418.000000 
"/>
<path fill="none" opacity="1.000000" stroke="#000000" stroke-linecap="round" stroke-linejoin="round" stroke-width="3.000000"
	d="
M413.500000,326.000000 
	C418.221252,328.675720 420.560638,334.055237 425.481659,336.536346 
	C426.469757,337.034576 427.337219,337.655029 428.500000,337.500000 
"/>
<path fill="none" opacity="1.000000" stroke="#000000" stroke-linecap="round" stroke-linejoin="round" stroke-width="4.000000"
	d="
M554.000000,333.000000 
	C554.238098,338.192017 555.994324,343.237122 555.500000,348.500000 
"/>
<path fill="none" opacity="1.000000" stroke="#000000" stroke-linecap="round" stroke-linejoin="round" stroke-width="3.000000"
	d="
M193.500000,387.500000 
	C195.962860,392.461945 198.834106,397.333160 197.000000,403.250000 
"/>
<path fill="none" opacity="1.000000" stroke="#000000" stroke-linecap="round" stroke-linejoin="round" stroke-width="2.000000"
	d="
M66.500015,357.500031 
	C65.000015,358.833344 63.313721,360.010406 62.037609,361.531555 
	C59.107960,365.023834 55.986687,367.726715 50.448013,364.903748 
	C51.363758,369.303040 51.199123,372.587494 49.442940,375.465179 
	C48.483875,377.036652 48.232319,378.396179 49.000000,380.000000 
"/>
<path fill="none" opacity="1.000000" stroke="#000000" stroke-linecap="round" stroke-linejoin="round" stroke-width="3.000000"
	d="
M445.000000,318.500000 
	C443.417633,321.666656 443.933075,324.690765 444.859222,328.038940 
	C445.842560,331.593750 446.461609,335.731476 441.500000,337.500000 
"/>
<path fill="none" opacity="1.000000" stroke="#000000" stroke-linecap="round" stroke-linejoin="round" stroke-width="3.000000"
	d="
M41.500000,231.500000 
	C42.859123,237.319565 47.502670,238.888702 52.500000,240.000000 
"/>
<path fill="none" opacity="1.000000" stroke="#000000" stroke-linecap="round" stroke-linejoin="round" stroke-width="10.000000"
	d="
M52.500000,206.500000 
	C52.451973,212.555130 51.726799,218.418243 45.964504,221.941956 
	C43.501118,223.448334 43.161613,226.412460 41.000000,228.000000 
"/>
<path fill="none" opacity="1.000000" stroke="#000000" stroke-linecap="round" stroke-linejoin="round" stroke-width="6.000000"
	d="
M184.000000,405.500000 
	C188.067276,405.236938 192.001923,405.207153 196.138657,403.959900 
	C198.771118,403.166199 203.575897,403.544891 206.687439,407.346588 
	C209.348740,410.598114 213.763657,412.317291 218.016922,413.435669 
	C219.066376,413.711639 220.138901,413.749969 221.000000,414.500000 
"/>
<path fill="none" opacity="1.000000" stroke="#000000" stroke-linecap="round" stroke-linejoin="round" stroke-width="3.000000"
	d="
M17.500000,405.750000 
	C18.182802,405.947296 19.280083,406.593506 18.934240,406.933014 
	C15.343250,410.458069 17.975859,414.663513 17.500000,418.500000 
"/>
<path fill="none" opacity="1.000000" stroke="#000000" stroke-linecap="round" stroke-linejoin="round" stroke-width="4.000000"
	d="
M14.500000,393.500000 
	C14.548702,396.901031 13.602108,400.451355 16.000000,403.500000 
"/>
<path fill="none" opacity="1.000000" stroke="#000000" stroke-linecap="round" stroke-linejoin="round" stroke-width="4.000000"
	d="
M411.000000,368.500000 
	C412.407257,371.833344 410.686066,375.166656 411.000000,378.500000 
"/>
<path fill="none" opacity="1.000000" stroke="#000000" stroke-linecap="round" stroke-linejoin="round" stroke-width="4.000000"
	d="
M447.500000,316.000000 
	C453.500000,316.333313 459.500000,316.666656 465.500000,317.000000 
"/>
<path fill="none" opacity="1.000000" stroke="#000000" stroke-linecap="round" stroke-linejoin="round" stroke-width="3.000000"
	d="
M178.000000,387.500000 
	C176.033493,384.832733 173.539886,384.583527 170.475021,385.407013 
	C168.947571,385.817413 166.993561,386.897736 165.500000,385.000000 
"/>
<path fill="none" opacity="1.000000" stroke="#000000" stroke-linecap="round" stroke-linejoin="round" stroke-width="3.000000"
	d="
M450.500000,269.500000 
	C449.124054,273.244629 444.937622,274.803345 443.500000,278.500000 
"/>
<path fill="none" opacity="1.000000" stroke="#000000" stroke-linecap="round" stroke-linejoin="round" stroke-width="3.000000"
	d="
M49.000000,409.500000 
	C49.698223,413.543518 53.504910,412.751617 56.000000,414.000000 
"/>
<path fill="none" opacity="1.000000" stroke="#000000" stroke-linecap="round" stroke-linejoin="round" stroke-width="4.000000"
	d="
M593.500000,310.000000 
	C590.984802,309.938568 588.483765,308.602051 585.945923,310.424744 
	C584.936890,311.149414 583.487732,310.459656 582.500000,309.500000 
"/>
<path fill="none" opacity="1.000000" stroke="#000000" stroke-linecap="round" stroke-linejoin="round" stroke-width="3.000000"
	d="
M181.500000,375.000000 
	C179.168381,373.022308 177.107941,374.569855 175.067825,375.313843 
	C173.094879,378.775696 177.536621,381.717377 175.500000,385.000000 
"/>
<path fill="none" opacity="1.000000" stroke="#000000" stroke-linecap="round" stroke-linejoin="round" stroke-width="3.000000"
	d="
M174.000000,376.500000 
	C171.278458,376.052856 168.971970,373.945465 166.000000,374.500000 
"/>
<path fill="none" opacity="1.000000" stroke="#000000" stroke-linecap="round" stroke-linejoin="round" stroke-width="3.000000"
	d="
M434.500000,366.000000 
	C436.227478,368.395935 434.912811,370.994690 435.000000,373.500000 
"/>
<path fill="none" opacity="1.000000" stroke="#000000" stroke-linecap="round" stroke-linejoin="round" stroke-width="2.000000"
	d="
M213.500000,392.500000 
	C210.966171,393.039795 208.892319,395.304535 206.000000,394.500000 
"/>
<path fill="none" opacity="1.000000" stroke="#000000" stroke-linecap="round" stroke-linejoin="round" stroke-width="2.000000"
	d="
M104.500000,352.500000 
	C101.922195,352.351166 99.691711,351.229858 97.500000,350.000000 
"/>
<path fill="none" opacity="1.000000" stroke="#000000" stroke-linecap="round" stroke-linejoin="round" stroke-width="3.000000"
	d="
M207.500000,409.500000 
	C207.088058,412.516693 209.137375,414.208069 211.000000,416.000000 
"/>
<path fill="none" opacity="1.000000" stroke="#000000" stroke-linecap="round" stroke-linejoin="round" stroke-width="2.000000"
	d="
M44.000000,239.000000 
	C43.833332,240.500000 43.666668,242.000000 43.500000,243.500000 
"/>
<path fill="none" opacity="1.000000" stroke="#000000" stroke-linecap="round" stroke-linejoin="round" stroke-width="3.000000"
	d="
M113.500000,133.500000 
	C112.433746,134.856110 108.779945,132.762146 109.500000,136.500000 
"/>
</svg>